<?xml version="1.0" encoding="utf-8"?>
<!-- Generator: Adobe Illustrator 16.0.0, SVG Export Plug-In . SVG Version: 6.00 Build 0)  -->
<!DOCTYPE svg PUBLIC "-//W3C//DTD SVG 1.1//EN" "http://www.w3.org/Graphics/SVG/1.1/DTD/svg11.dtd">
<svg version="1.1" id="Layer_1" xmlns="http://www.w3.org/2000/svg" xmlns:xlink="http://www.w3.org/1999/xlink" x="0px" y="0px"
	 width="226px" height="226px" viewBox="0 0 226 226" enable-background="new 0 0 226 226" xml:space="preserve">
<g>
	<defs>
		<rect id="SVGID_1_" x="14" y="14" width="198" height="198"/>
	</defs>
	<clipPath id="SVGID_2_">
		<use xlink:href="#SVGID_1_"  overflow="visible"/>
	</clipPath>
	<path clip-path="url(#SVGID_2_)" fill="#FFFFFF" d="M72.423,99.063c0.206-0.172,0.56-0.318,0.597-0.522
		c0.925-5.04,4.202-7.654,8.941-8.888c7.053-1.835,13.997-4.256,21.149-5.504c9.023-1.575,18.017-0.981,26.028,4.318
		c6.303,4.169,8.876,10.43,9.444,17.674c0.729,9.272-2.023,18.012-4.349,26.79c-2.906,10.979-6.155,21.868-8.933,32.877
		c-1.027,4.071-1.427,8.36-1.599,12.572c-0.25,6.117,3.465,9.89,9.524,9.62c5.062-0.225,10.108-0.964,15.136-1.659
		c1.669-0.231,2.013,0.228,2.042,1.769c0.125,6.567-3.109,9.423-9.288,11.138c-7.022,1.949-14.049,3.974-21.19,5.376
		c-9.86,1.937-19.468,1.136-27.616-5.53c-4.107-3.359-6.547-7.972-7.51-13.241c-1.145-6.266-0.566-12.465,1.011-18.586
		c4.079-15.831,8.242-31.639,12.237-47.491c0.991-3.935,1.856-7.945,0.76-12.094c-1.137-4.301-4.719-7.613-9.17-7.323
		c-4.417,0.288-8.788,1.298-13.173,2.031c-1.357,0.227-2.694,0.584-4.041,0.882V99.063z"/>
	<path clip-path="url(#SVGID_2_)" fill="#FFFFFF" d="M135.519,21.011c1.126,0.5,2.22,1.095,3.382,1.487
		c8.79,2.955,15.371,11.814,15.071,20.943c-0.282,8.551-5.194,15.743-13.885,19.359c-9.938,4.133-20.234,1.742-27.698-6.136
		c-6.872-7.251-6.89-19.935-0.111-27.271c3.667-3.97,7.956-6.786,13.336-7.792c0.215-0.04,0.372-0.387,0.558-0.591H135.519z"/>
</g>
</svg>
