<?xml version="1.0" encoding="utf-8"?>
<!-- Generator: Adobe Illustrator 16.0.0, SVG Export Plug-In . SVG Version: 6.00 Build 0)  -->
<!DOCTYPE svg PUBLIC "-//W3C//DTD SVG 1.1//EN" "http://www.w3.org/Graphics/SVG/1.1/DTD/svg11.dtd">
<svg version="1.1" id="Layer_1" xmlns="http://www.w3.org/2000/svg" xmlns:xlink="http://www.w3.org/1999/xlink" x="0px" y="0px"
	 width="25px" height="25px" viewBox="0 0 25 25" enable-background="new 0 0 25 25" xml:space="preserve">
<g id="Layer_1_1_" display="none">
	<path display="inline" fill="#407700" d="M25,12.5C25,19.406,19.402,25,12.5,25C5.594,25,0,19.406,0,12.5S5.594,0,12.5,0
		C19.402,0,25,5.594,25,12.5"/>
	<path display="inline" fill="#FFFFFF" d="M12.629,22.441h-0.014c-0.035-0.071-0.074-0.141-0.108-0.213
		c-0.174-0.412-0.426-0.767-0.74-1.084c-0.495-0.504-0.984-1.015-1.532-1.459c-0.293-0.238-0.597-0.461-0.881-0.709
		c-0.667-0.586-1.179-1.279-1.485-2.119c-0.157-0.434-0.285-0.875-0.443-1.312c-0.075-0.209-0.119-0.416-0.106-0.637
		c0.008-0.151,0.002-0.304,0.002-0.455c0-0.021,0.004-0.041,0.004-0.075c0.16,0.112,0.313,0.221,0.465,0.323
		c1.025,0.724,2.062,1.434,3.077,2.177c0.492,0.361,0.944,0.775,1.416,1.165c0.016,0.017,0.037,0.03,0.062,0.049v-4.351
		c-0.162-0.032-0.326-0.063-0.489-0.098c-0.68-0.147-1.32-0.396-1.888-0.808c-0.825-0.6-1.265-1.389-1.228-2.424
		c0.025-0.686,0.066-1.366,0.171-2.041c0.1-0.651,0.211-1.298,0.335-1.942c0.149-0.741,0.322-1.48,0.484-2.222
		c0.042-0.188,0.083-0.371,0.228-0.52c0.542,0.343,1.087,0.689,1.637,1.039c0.373-0.574,0.741-1.136,1.119-1.71
		c0.346,0.589,0.686,1.164,1.023,1.749c0.572-0.371,1.14-0.739,1.707-1.107c0.01,0.023,0.016,0.037,0.021,0.055
		c0.322,1.483,0.646,2.965,0.964,4.448c0.098,0.456,0.154,0.915,0.18,1.38c0.021,0.451,0.008,0.898-0.028,1.35
		c-0.046,0.559-0.246,1.049-0.64,1.454c-0.516,0.53-1.146,0.884-1.83,1.14c-0.334,0.125-0.688,0.201-1.033,0.291
		c-0.051,0.015-0.066,0.033-0.066,0.082c0.002,1.464,0.002,2.929,0.002,4.393c0,0.014,0.006,0.027,0.01,0.059
		c0.246-0.457,0.574-0.824,0.979-1.117c0.281-0.203,0.581-0.387,0.879-0.566c0.438-0.27,0.9-0.498,1.318-0.797
		c0.651-0.469,1.272-0.979,1.907-1.475v0.062c-0.004,0.015-0.015,0.028-0.015,0.044c-0.062,0.348-0.13,0.691-0.183,1.044
		c-0.143,0.892-0.492,1.688-1.014,2.416c-0.5,0.699-1.125,1.267-1.83,1.742c-0.463,0.313-0.855,0.694-1.192,1.138
		C13.454,21.343,13.043,21.896,12.629,22.441"/>
</g>
<g id="Layer_2" display="none">
	<path display="inline" fill="#F6BD06" d="M25,12.499C25,19.402,19.402,25,12.499,25C5.595,25,0,19.402,0,12.499
		C0,5.596,5.595,0,12.499,0C19.402,0,25,5.596,25,12.499"/>
	<path display="inline" fill="#FFFFFF" d="M12.61,2.103c-0.107,0.657-0.255,1.249-0.288,1.845c-0.055,1.024,0.322,1.92,0.95,2.726
		c0.354,0.455,0.569,0.985,0.562,1.565c-0.017,0.93-0.665,1.712-1.61,1.878c-0.086,0.015-0.169,0.047-0.251,0.07
		c0.08,0.438,0.176,0.524,0.586,0.524c1.215,0.001,2.43,0,3.646,0h0.284v12.434c-0.838,0.223-1.695,0.455-2.555,0.672
		c-0.775,0.199-1.575,0.205-2.357,0.134c-0.741-0.068-1.47-0.269-2.2-0.425c-0.322-0.067-0.638-0.164-0.954-0.254
		c-0.168-0.047-0.303-0.102-0.303-0.336c0.008-4.017,0.006-8.031,0.006-12.046c0-0.048,0.005-0.096,0.008-0.169H11.8
		c-0.011-0.419-0.084-0.517-0.448-0.613c-0.837-0.225-1.256-0.731-1.36-1.554c-0.118-0.936,0.032-1.843,0.267-2.735
		c0.28-1.062,0.774-2.026,1.502-2.86c0.192-0.22,0.374-0.449,0.572-0.663C12.405,2.216,12.511,2.169,12.61,2.103 M11.679,4.97
		c-0.167,0.262-0.341,0.52-0.501,0.787c-0.406,0.67-0.673,1.392-0.737,2.176c-0.052,0.621,0.261,1.448,1.2,1.588
		c0.212-0.305,0.186-0.747,0.503-0.991c0.034,0.015,0.068,0.029,0.101,0.044c-0.089,0.292-0.18,0.585-0.277,0.905
		c0.348-0.017,0.599-0.192,0.785-0.434c0.44-0.579,0.288-1.191-0.118-1.735C12.116,6.618,11.74,5.876,11.679,4.97"/>
</g>
<g id="Layer_3">
	<path display="none" fill="#007879" d="M25,12.5C25,19.404,19.402,25,12.502,25C5.596,25,0,19.404,0,12.5C0,5.597,5.596,0,12.502,0
		C19.402,0,25,5.597,25,12.5"/>
	<path display="none" fill="#007879" d="M12.568,0c6.936,0,12.563,5.626,12.563,12.566"/>
	<path display="none" fill="#007879" d="M25,12.5C25,19.404,19.402,25,12.502,25C5.596,25,0,19.404,0,12.5C0,5.596,5.596,0,12.502,0
		"/>
	<path fill="#FFFFFF" d="M16.325,3.731c0.14,0.033,0.283,0.059,0.425,0.093c1.101,0.262,1.951,1.208,2.077,2.331
		c0.161,1.511-0.273,2.829-1.376,3.888c-0.605,0.581-1.235,1.13-1.858,1.689c-0.727,0.654-1.449,1.309-2.176,1.961
		c-0.002,0.005-0.014,0.009-0.009,0.005c-0.675-0.604-1.349-1.205-2.023-1.807c-0.605-0.54-1.221-1.076-1.823-1.627
		C9.174,9.904,8.833,9.502,8.551,9.05C8.129,8.367,7.976,7.613,7.94,6.824C7.917,6.285,7.99,5.765,8.235,5.282
		c0.424-0.839,1.106-1.332,2.03-1.502c0.073-0.016,0.151-0.033,0.224-0.048h0.556c0.025,0.009,0.05,0.018,0.076,0.024
		c0.788,0.112,1.424,0.492,1.934,1.097c0.123,0.146,0.23,0.307,0.351,0.466c0.032-0.051,0.065-0.097,0.097-0.145
		c0.411-0.604,0.942-1.057,1.641-1.292c0.206-0.069,0.416-0.102,0.628-0.15H16.325z M13.512,11.513
		c0.256-0.025,0.515-0.03,0.765-0.074c0.346-0.054,0.652-0.198,0.912-0.423c0.421-0.367,0.697-0.826,0.851-1.354
		c0.174-0.575,0.179-1.163,0.049-1.751c-0.087-0.396-0.248-0.771-0.511-1.087c-0.459-0.559-1.095-0.79-1.785-0.861
		c-0.387-0.039-0.777-0.008-1.169,0.056c-0.623,0.097-1.1,0.402-1.449,0.92c-0.212,0.326-0.351,0.68-0.438,1.062
		c-0.114,0.469-0.12,0.935-0.033,1.404c0.066,0.367,0.183,0.716,0.383,1.034c0.245,0.398,0.567,0.696,1.021,0.848
		C12.565,11.435,13.027,11.525,13.512,11.513"/>
	<path fill="#FFFFFF" d="M1.316,15.265c0.603-0.141,1.1-0.428,1.412-0.814c0.81,1.708,1.542,3.44,2.298,5.179
		c-0.283,0.036-0.477,0.22-0.701,0.354c-0.083,0.054-0.147,0.054-0.229-0.02c-1.155-0.935-1.936-2.123-2.431-3.509
		c-0.127-0.359-0.216-0.729-0.323-1.092c-0.008-0.018-0.016-0.034-0.026-0.049V15.265z"/>
	<path fill="#FFFFFF" d="M5.26,19.219c-0.726-1.705-1.601-3.331-2.213-5.09c0.069-0.021,0.135-0.037,0.199-0.052
		c0.533-0.159,1.016-0.423,1.503-0.68c0.629-0.337,1.252-0.678,1.93-0.916c0.547-0.194,1.106-0.296,1.689-0.249
		c0.47,0.04,0.905,0.196,1.316,0.43c0.519,0.3,0.979,0.677,1.425,1.063c0.781,0.678,1.661,1.148,2.668,1.393
		c0.558,0.137,1.122,0.134,1.688,0.129c0.472-0.006,0.945-0.012,1.405,0.091c0.098,0.024,0.19,0.062,0.283,0.099
		c0.464,0.199,0.467,0.881,0.075,1.123c-0.258,0.161-0.546,0.223-0.844,0.256c-0.842,0.097-1.688,0.018-2.533,0.018
		c-0.616,0-1.233-0.022-1.848-0.069c-0.652-0.051-1.297-0.158-1.896-0.45c-0.008-0.004-0.014,0.003-0.032,0.003
		c0.243,0.313,0.531,0.57,0.854,0.79c0.488,0.33,1.033,0.515,1.625,0.574c0.732,0.073,1.471,0.104,2.206,0.086
		c0.781-0.025,1.554-0.079,2.311-0.303c0.445-0.132,0.813-0.385,1.044-0.8c0.463-0.847,0.025-1.819-0.931-2.037
		c-0.361-0.086-0.739-0.115-1.117-0.145c-0.479-0.041-0.955-0.061-1.437-0.083c0.01-0.029,0.01-0.037,0.012-0.04
		c0.553-0.351,1.103-0.706,1.661-1.05c0.333-0.201,0.689-0.353,1.085-0.409c0.484-0.072,0.897,0.065,1.247,0.405
		c0.027,0.023,0.049,0.046,0.081,0.069c0.343-0.284,0.74-0.44,1.175-0.505c0.242-0.035,0.491-0.037,0.733,0.039
		c0.345,0.11,0.534,0.379,0.558,0.783c0,0.019,0.002,0.044,0.005,0.082c0.049-0.029,0.084-0.054,0.125-0.074
		c0.622-0.36,1.274-0.491,1.97-0.258c0.284,0.095,0.479,0.291,0.576,0.575c0.018,0.066,0.02,0.146,0,0.21
		c-0.138,0.47-0.443,0.818-0.829,1.095c-0.401,0.289-0.829,0.54-1.235,0.813c-1.317,0.887-2.625,1.779-3.942,2.66
		c-0.811,0.542-1.635,1.078-2.458,1.602c-0.335,0.212-0.69,0.386-1.074,0.473c-0.488,0.107-0.97,0.04-1.438-0.104
		c-0.646-0.203-1.237-0.529-1.83-0.852c-0.832-0.448-1.665-0.903-2.499-1.351c-0.23-0.12-0.473-0.22-0.715-0.314
		c-0.412-0.164-0.805-0.107-1.176,0.12c-0.225,0.138-0.435,0.304-0.648,0.462C5.784,18.993,5.55,19.146,5.26,19.219"/>
	<path fill="#FFFFFF" d="M10.835,8.778c0.015-0.502,0.128-0.971,0.352-1.416c0.203-0.405,0.494-0.735,0.905-0.941
		c0.348-0.175,0.717-0.224,1.108-0.17c0.406,0.058,0.737,0.24,1.006,0.543c0.291,0.321,0.467,0.708,0.564,1.126
		c0.079,0.332,0.117,0.665,0.093,1.001c-0.047,0.624-0.205,1.208-0.617,1.695c-0.352,0.415-0.796,0.608-1.335,0.625
		c-0.465,0.008-0.855-0.161-1.208-0.448c-0.434-0.35-0.667-0.814-0.77-1.351C10.887,9.226,10.866,9,10.835,8.778 M11.901,9.279
		c0.049,0.14,0.078,0.275,0.141,0.39c0.119,0.216,0.334,0.316,0.552,0.396c0.073,0.023,0.094,0.054,0.094,0.128
		c-0.001,0.258-0.046,0.225,0.233,0.233c0.104,0.004,0.135-0.051,0.137-0.138v-0.207c0.136-0.043,0.259-0.076,0.369-0.122
		c0.063-0.025,0.126-0.065,0.171-0.114c0.062-0.072,0.116-0.152,0.164-0.232c0.166-0.283,0.193-0.576-0.013-0.849
		c-0.078-0.106-0.202-0.196-0.322-0.26c-0.215-0.117-0.449-0.202-0.664-0.313c-0.157-0.083-0.254-0.204-0.029-0.328
		c0.034-0.022,0.065-0.052,0.097-0.072c0.124-0.077,0.177-0.032,0.259,0.058c0.092,0.099,0.192,0.199,0.256,0.264
		c0.164-0.064,0.29-0.114,0.408-0.161c-0.127-0.452-0.21-0.537-0.64-0.661c-0.024-0.002-0.05-0.05-0.057-0.08
		c-0.005-0.065,0-0.137,0-0.209h-0.372c0,0.048-0.001,0.083,0,0.122c0.016,0.104-0.015,0.152-0.129,0.185
		c-0.314,0.091-0.531,0.305-0.58,0.625c-0.057,0.34,0.069,0.622,0.354,0.834c0.193,0.143,0.42,0.176,0.642,0.246
		c0.104,0.035,0.223,0.067,0.243,0.203c0.018,0.114,0.002,0.223-0.096,0.297c-0.106,0.08-0.387,0.095-0.532-0.063
		c-0.07-0.082-0.111-0.195-0.178-0.311C12.262,9.182,12.092,9.227,11.901,9.279"/>
	<path fill="#FFFFFF" d="M15.827,7.979c-0.245,0.138-0.508,0-0.76,0.043c-0.033-0.108-0.064-0.213-0.095-0.312
		c0.248,0,0.485,0.004,0.721,0c0.087,0,0.103,0.047,0.103,0.117C15.794,7.871,15.814,7.916,15.827,7.979"/>
	<path fill="#FFFFFF" d="M15.609,10.101c-0.071,0.104-0.125,0.182-0.182,0.254c-0.01,0.017-0.038,0.022-0.062,0.022
		c-0.23,0.001-0.468,0.001-0.698,0.001c-0.005-0.175,0.192-0.264,0.34-0.275C15.197,10.094,15.387,10.101,15.609,10.101"/>
	<path fill="#FFFFFF" d="M15.593,7.324c-0.263,0-0.487-0.001-0.714,0c-0.063,0-0.099-0.01-0.111-0.081
		c-0.016-0.057-0.05-0.11-0.084-0.188c0.133-0.004,0.253-0.012,0.373-0.009c0.123,0.002,0.242,0.015,0.372,0.022
		C15.477,7.138,15.527,7.222,15.593,7.324"/>
	<path fill="#FFFFFF" d="M15.024,6.596c-0.467,0.16-0.869,0.014-0.928-0.239C14.558,6.322,14.783,6.386,15.024,6.596"/>
</g>
<g id="Layer_4" display="none">
	<path display="inline" fill="#7A4AA9" d="M25,12.5C25,19.404,19.406,25,12.5,25C5.597,25,0,19.404,0,12.5C0,5.596,5.597,0,12.5,0
		C19.406,0,25,5.596,25,12.5"/>
	<path display="inline" fill="#FFFFFF" d="M16.525,3.731c-0.191,0.336-0.387,0.674-0.57,1.001c0.271-0.27,0.554-0.546,0.834-0.819
		l0.048,0.039c-0.142,0.213-0.278,0.428-0.419,0.64l0.02,0.032c0.338-0.22,0.674-0.442,1.013-0.661
		c0.011,0.014,0.021,0.029,0.03,0.043c-0.455,0.377-0.905,0.756-1.364,1.122c-0.739,0.585-1.604,0.97-2.412,1.438
		c-1.272,0.735-2.479,1.57-3.617,2.494c-0.774,0.628-1.397,1.401-1.999,2.185c-1.226,1.6-2.365,3.26-3.33,5.034
		c-0.055,0.104-0.123,0.184-0.233,0.133c-0.062-0.029-0.117-0.125-0.128-0.199c-0.111-0.693,0.017-1.371,0.165-2.045
		c0.02-0.084,0.047-0.17,0.085-0.311C4.71,14.27,4.766,14.63,4.82,14.988c0.022-0.002,0.041-0.004,0.061-0.008
		c-0.065-0.498-0.014-0.982,0.197-1.491v0.95h0.025c0.097-0.508,0.196-1.023,0.285-1.533c0.125-0.697,0.391-1.333,0.859-1.872
		c0.372-0.433,0.756-0.857,1.16-1.274c0.071,0.443-0.014,0.906,0.265,1.345c-0.023-0.29-0.048-0.533-0.059-0.778
		C7.587,9.785,7.685,9.252,7.945,8.776c0.178-0.317,0.43-0.6,0.676-0.874c0.566-0.633,1.208-1.187,1.934-1.636
		c0.034-0.021,0.066-0.037,0.115-0.064c-0.094,0.4-0.184,0.78-0.271,1.163c0.02,0.006,0.041,0.008,0.058,0.012
		c0.071-0.225,0.132-0.457,0.208-0.681c0.15-0.43,0.389-0.776,0.824-0.98c0.354-0.164,0.688-0.373,1.045-0.568
		c-0.127,0.455-0.25,0.884-0.37,1.314c0.022,0.013,0.047,0.02,0.069,0.029c0.043-0.09,0.084-0.178,0.135-0.266
		c0.277-0.464,0.554-0.932,0.842-1.387c0.052-0.086,0.147-0.158,0.242-0.202c0.864-0.421,1.765-0.733,2.721-0.869
		c0.029-0.005,0.056-0.024,0.085-0.036H16.525z"/>
	<path display="inline" fill="#FFFFFF" d="M11.117,13.439c-0.676,0.373-1.344,0.75-2.022,1.117
		c-0.705,0.371-1.461,0.588-2.251,0.697c-0.186,0.023-0.364,0.1-0.548,0.148c0.006,0.018,0.012,0.037,0.017,0.055
		c0.238-0.037,0.474-0.074,0.709-0.105c0.084-0.016,0.168-0.029,0.247-0.021c0.612,0.063,1.157-0.132,1.691-0.392
		c0.103-0.049,0.202-0.099,0.305-0.146c0.02,0.023,0.044,0.046,0.064,0.068c-0.044,0.015-0.099,0.019-0.133,0.048
		c-0.621,0.511-1.335,0.834-2.099,1.067c-0.418,0.129-0.817,0.313-1.234,0.445c-0.144,0.046-0.308,0.023-0.51,0.035
		c0.131-0.234,0.238-0.428,0.35-0.619C7,13.611,8.556,11.584,10.457,9.835c0.875-0.804,1.818-1.517,2.818-2.161
		c1.498-0.963,2.93-2.02,4.256-3.211c0.027-0.027,0.06-0.048,0.104-0.082c0.055,0.077,0.115,0.141,0.156,0.219
		c0.132,0.244,0.105,0.331-0.127,0.482c-0.258,0.163-0.514,0.333-0.75,0.539c0.309-0.115,0.615-0.228,0.953-0.352
		c0,0.156,0.011,0.308-0.006,0.452c-0.01,0.052-0.086,0.109-0.143,0.133c-0.449,0.191-0.904,0.377-1.386,0.578
		c0.476-0.104,0.925-0.202,1.394-0.305c-0.056,0.214-0.144,0.397-0.346,0.518c-0.559,0.334-1.169,0.494-1.809,0.569
		c-0.075,0.008-0.15,0.016-0.229,0.024c-0.02,0.003-0.033,0.014-0.053,0.05c0.211,0,0.422,0.012,0.63-0.002
		c0.216-0.016,0.431-0.051,0.644-0.092s0.42-0.096,0.662-0.154c-0.326,1.132-1.022,1.825-2.205,2.002
		c0.011,0.018,0.021,0.03,0.033,0.047c0.291-0.047,0.582-0.097,0.873-0.143c0.008,0.011,0.014,0.025,0.02,0.038
		c-0.327,0.144-0.653,0.29-0.979,0.435V9.44c0.192-0.023,0.389-0.046,0.582-0.068c0.01,0.009,0.021,0.02,0.03,0.032
		c-0.084,0.086-0.166,0.174-0.256,0.253c-0.53,0.457-1.156,0.736-1.81,0.965c-1.008,0.356-2.038,0.559-3.113,0.492
		c-0.267-0.015-0.538,0.062-0.804,0.099c0.003,0.021,0.005,0.04,0.007,0.061c0.131-0.012,0.259-0.037,0.39-0.032
		c0.346,0.015,0.702,0.019,1.043,0.079c0.717,0.125,1.422,0.06,2.133-0.034c0.068-0.007,0.137-0.025,0.206-0.037
		c0.011,0,0.022,0.007,0.052,0.016c-0.147,0.359-0.371,0.663-0.639,0.939c-0.31,0.324-0.678,0.55-1.108,0.684
		c-0.603,0.191-1.192,0.411-1.8,0.575c-0.36,0.099-0.741,0.106-1.111,0.167c0.782,0.008,1.572,0.122,2.309-0.279
		C11.095,13.378,11.105,13.411,11.117,13.439"/>
	<path display="inline" fill="#FFFFFF" d="M4.061,19.281c0.068-0.266,0.223-0.357,0.395-0.432c0.549-0.24,1.13-0.341,1.727-0.382
		c1.171-0.082,2.29,0.123,3.38,0.558c0.809,0.322,1.643,0.591,2.512,0.714c1.817,0.261,3.461-0.132,4.922-1.269
		c1.271-0.99,2.215-2.228,2.896-3.677c0.014-0.021,0.018-0.043,0.024-0.067c-0.362-0.082-0.726-0.149-1.082-0.246
		c-0.668-0.183-1.31-0.441-1.834-0.91c-0.674-0.604-1.062-1.349-0.972-2.282c0.052-0.506,0.296-0.913,0.718-1.209
		c0.323-0.231,0.678-0.383,1.065-0.445c0.125-0.021,0.158-0.074,0.162-0.183c0.06-1.02,0.601-1.709,1.487-2.15
		c0.552-0.272,0.987-0.129,1.284,0.414c0.266,0.482,0.377,1.012,0.441,1.55c0.205,1.714-0.064,3.363-0.74,4.947
		c-0.014,0.026-0.018,0.056-0.035,0.11c0.648-0.121,1.234-0.323,1.641-0.848c0.473-0.615,0.926-1.248,1.387-1.871
		c0.08-0.108,0.16-0.208,0.256-0.334c0.062,0.195,0.062,0.347-0.073,0.48c-0.031,0.027-0.062,0.066-0.078,0.106
		c-0.342,0.689-0.883,1.229-1.334,1.839c-0.274,0.373-0.676,0.57-1.108,0.705c-0.218,0.07-0.445,0.107-0.662,0.183
		c-0.084,0.026-0.178,0.099-0.217,0.172c-0.576,1.181-1.291,2.256-2.232,3.177c-1.041,1.018-2.23,1.772-3.689,2.041
		c-1.143,0.204-2.271,0.137-3.378-0.222c-0.855-0.272-1.697-0.595-2.559-0.83c-1.127-0.312-2.269-0.308-3.399,0.002
		c-0.176,0.052-0.333,0.158-0.502,0.228C4.344,19.198,4.22,19.232,4.061,19.281 M17.945,9.803c-0.35,0.146-0.649,0.258-0.936,0.404
		c-0.242,0.122-0.443,0.304-0.552,0.563c-0.187,0.442-0.246,0.906-0.136,1.364c0.136,0.56,0.529,0.98,0.951,1.328
		c0.709,0.573,1.552,0.858,2.468,0.922c0.413,0.027,0.334,0.039,0.469-0.269c0.753-1.735,0.99-3.532,0.621-5.393
		C20.762,8.357,20.588,8,20.407,7.668c-0.154-0.279-0.358-0.326-0.652-0.197c-0.26,0.115-0.521,0.246-0.739,0.424
		c-0.525,0.425-0.761,1.001-0.805,1.668c0.107,0.036,0.204,0.063,0.303,0.096c0.223,0.076,0.397,0.208,0.438,0.457
		c0.039,0.259-0.084,0.455-0.276,0.616c-0.147,0.123-0.321,0.166-0.503,0.098c-0.176-0.069-0.211-0.246-0.225-0.41
		C17.936,10.238,17.945,10.057,17.945,9.803 M18.18,9.859c0.008,0.201,0.002,0.394,0.027,0.587c0.023,0.171,0.121,0.201,0.273,0.114
		c0.141-0.076,0.219-0.27,0.174-0.43C18.602,9.936,18.477,9.85,18.18,9.859"/>
	<path display="inline" fill="#FFFFFF" d="M4.914,17.064c-0.12-0.049-0.223-0.092-0.344-0.144c0.347-0.59,0.669-1.176,1.021-1.745
		c1.013-1.65,2.124-3.238,3.41-4.696c0.981-1.116,2.118-2.05,3.353-2.858c1.238-0.804,2.515-1.554,3.773-2.328
		c0.195-0.122,0.391-0.241,0.604-0.341c-0.041,0.039-0.078,0.082-0.125,0.114c-0.914,0.646-1.801,1.342-2.75,1.935
		c-2.636,1.651-4.82,3.768-6.648,6.27c-0.751,1.026-1.422,2.1-2.04,3.209C5.068,16.66,5.003,16.854,4.914,17.064"/>
	<path display="inline" fill="#FFFFFF" d="M4.739,17.773c-0.058,0.242-0.117,0.49-0.183,0.735c-0.01,0.037-0.043,0.076-0.075,0.099
		c-0.228,0.164-0.462,0.326-0.677,0.477c0.094-0.256,0.057-0.549-0.017-0.844c-0.01-0.037,0.007-0.086,0.022-0.125
		c0.025-0.051,0.058-0.1,0.087-0.147C4.203,17.465,4.203,17.465,4.739,17.773 M4.191,18.16c-0.051,0.078-0.111,0.129-0.106,0.174
		c0.007,0.043,0.073,0.08,0.114,0.121c0.041-0.045,0.106-0.086,0.115-0.139C4.321,18.281,4.252,18.234,4.191,18.16"/>
	<path display="inline" fill="#FFFFFF" d="M4.984,17.299c-0.048,0.109-0.085,0.196-0.128,0.295
		c-0.223-0.094-0.432-0.176-0.653-0.266c0.044-0.104,0.081-0.186,0.127-0.296C4.547,17.123,4.757,17.205,4.984,17.299"/>
</g>
<g id="Layer_5" display="none">
	<path display="inline" fill="#797979" d="M12.5,24.219c-6.475,0-11.719-5.246-11.719-11.717c0-6.475,5.245-11.719,11.719-11.719
		c6.473,0,11.719,5.244,11.719,11.719C24.221,18.973,18.975,24.219,12.5,24.219 M12.5,0C5.599,0,0,5.597,0,12.502
		C0,19.4,5.599,25,12.5,25C19.4,25,25,19.4,25,12.502C25,5.597,19.4,0,12.5,0"/>
	<path display="inline" fill="#797979" d="M7.922,10.05h0.376c2.754,0,5.503,0.005,8.259-0.006c1.451-0.007,2.504,0.994,2.801,2.291
		c0.426,1.877-0.969,3.567-2.887,3.522c-0.191-0.006-0.255,0.061-0.324,0.231c-0.178,0.456-0.379,0.904-0.604,1.339
		c-0.049,0.098-0.227,0.178-0.346,0.178c-1.791,0.016-3.582,0.006-5.372,0.016c-0.193,0.002-0.322-0.074-0.39-0.229
		c-0.245-0.574-0.524-1.142-0.698-1.738c-0.449-1.551-0.622-3.148-0.76-4.75C7.958,10.632,7.944,10.361,7.922,10.05 M17.027,11.364
		c-0.156,1.112-0.313,2.204-0.467,3.299c0.891,0.036,1.57-0.582,1.69-1.519C18.354,12.331,17.807,11.532,17.027,11.364"/>
	<path display="inline" fill="#797979" d="M19.409,18.174c-0.24,0.268-0.448,0.577-0.729,0.795
		c-0.539,0.408-1.138,0.717-1.849,0.717c-2.914-0.002-5.83,0.025-8.746-0.018C7.042,19.652,6.25,19.072,5.672,18.2
		C5.657,18.182,5.66,18.146,5.651,18.1h13.703C19.372,18.128,19.391,18.148,19.409,18.174"/>
	<path display="inline" fill="#797979" d="M15.454,6.126c-0.115,0.248-0.218,0.51-0.354,0.742c-0.111,0.188-0.271,0.349-0.41,0.522
		c-0.336,0.408-0.391,0.74-0.022,1.319c0.051,0.074,0.144,0.134,0.151,0.207c0.015,0.102,0,0.232-0.057,0.304
		c-0.044,0.044-0.225,0.031-0.273-0.018c-0.455-0.445-0.748-1.187-0.355-1.812c0.146-0.23,0.325-0.436,0.492-0.644
		c0.402-0.505,0.402-0.867-0.008-1.377c-0.123-0.145-0.354-0.304-0.105-0.495c0.225-0.182,0.344,0.069,0.461,0.204
		c0.248,0.291,0.428,0.614,0.41,1.019C15.404,6.112,15.43,6.122,15.454,6.126"/>
	<path display="inline" fill="#797979" d="M13.465,6.113c-0.089,0.22-0.152,0.455-0.271,0.653c-0.133,0.226-0.312,0.422-0.477,0.625
		c-0.358,0.437-0.38,0.747-0.026,1.315c0.1,0.161,0.344,0.326,0.1,0.512c-0.252,0.192-0.368-0.099-0.483-0.258
		c-0.462-0.646-0.454-1.191,0.027-1.831c0.122-0.161,0.257-0.312,0.382-0.473c0.313-0.405,0.314-0.75,0.016-1.164
		c-0.076-0.1-0.187-0.182-0.23-0.297c-0.036-0.087-0.002-0.203,0-0.304c0.112,0,0.269-0.044,0.325,0.013
		C13.163,5.225,13.412,5.603,13.465,6.113"/>
	<path display="inline" fill="#797979" d="M11.492,6.121c-0.093,0.22-0.158,0.455-0.28,0.654c-0.131,0.224-0.314,0.414-0.475,0.617
		c-0.36,0.466-0.362,0.842-0.021,1.321c0.11,0.153,0.349,0.32,0.097,0.508c-0.244,0.176-0.354-0.087-0.465-0.239
		c-0.484-0.674-0.472-1.221,0.034-1.881c0.116-0.151,0.246-0.293,0.362-0.451c0.312-0.405,0.315-0.747,0.009-1.163
		c-0.074-0.101-0.184-0.183-0.224-0.291c-0.038-0.087-0.038-0.246,0.018-0.304c0.053-0.047,0.237-0.054,0.292,0
		C11.187,5.213,11.431,5.604,11.492,6.121"/>
</g>
<g id="Layer_7" display="none">
	
		<path display="inline" fill="none" stroke="#797979" stroke-width="1.16" stroke-linecap="round" stroke-linejoin="round" stroke-miterlimit="10" d="
		M19.6,18.119c0,0.783-0.557,1.425-1.233,1.425h-9.06c-0.681,0-1.233-0.642-1.233-1.425v-7.602c0-0.781,0.553-1.424,1.233-1.424
		h9.06c0.678,0,1.233,0.643,1.233,1.424V18.119z"/>
	
		<path display="inline" fill="none" stroke="#797979" stroke-width="1.16" stroke-linecap="round" stroke-linejoin="round" stroke-miterlimit="10" d="
		M6.835,16.695c-0.679,0-1.234-0.646-1.234-1.426V7.669c0-0.785,0.556-1.426,1.234-1.426h9.062c0.679,0,1.233,0.641,1.233,1.426"/>
	
		<path display="inline" fill="none" stroke="#797979" stroke-width="1.1" stroke-linecap="round" stroke-linejoin="round" stroke-miterlimit="10" d="
		M13.587,16.27c1.358,0,2.45-1.1,2.45-2.449c0-1.354-1.092-2.45-2.45-2.45c-1.351,0-2.45,1.098-2.45,2.45
		C11.137,15.17,12.236,16.27,13.587,16.27"/>
	
		<path display="inline" fill="none" stroke="#797979" stroke-width="1.1" stroke-linecap="round" stroke-linejoin="round" stroke-miterlimit="10" d="
		M10.063,19.457c0.375-1.828,1.79-3.188,3.479-3.188c1.75,0,3.209,1.262,3.521,3.188"/>
</g>
<g id="Layer_8" display="none">
	<path display="inline" fill="#919191" d="M13.063,9.257c0.248-0.01,0.492,0.026,0.729,0.107c0.495,0.171,0.771,0.521,0.852,1.035
		c0.075,0.483,0,0.954-0.158,1.405c-0.351,0.996-0.719,1.985-1.082,2.975c-0.354,0.962-0.713,1.921-1.061,2.886
		c-0.062,0.173-0.091,0.364-0.097,0.549c-0.008,0.248,0.164,0.361,0.405,0.296c0.256-0.07,0.463-0.228,0.642-0.41
		c0.353-0.361,0.687-0.738,1.033-1.105c0.14-0.148,0.288-0.293,0.44-0.426c0.117-0.104,0.229-0.082,0.32,0.043
		c0.096,0.131,0.114,0.272,0.044,0.424c-0.174,0.375-0.428,0.699-0.707,1c-0.729,0.787-1.559,1.449-2.514,1.939
		c-0.624,0.321-1.285,0.537-1.995,0.524c-0.203-0.004-0.409-0.043-0.604-0.101c-0.463-0.137-0.701-0.474-0.779-0.937
		c-0.066-0.388,0.015-0.763,0.094-1.136c0.206-0.984,0.568-1.916,0.941-2.844c0.524-1.31,1.047-2.62,1.565-3.929
		c0.046-0.118,0.08-0.247,0.087-0.373c0.016-0.259-0.161-0.399-0.416-0.35c-0.219,0.042-0.395,0.167-0.563,0.301
		c-0.373,0.296-0.673,0.664-0.985,1.02c-0.201,0.229-0.406,0.457-0.629,0.665c-0.163,0.15-0.395,0.07-0.454-0.143
		c-0.019-0.07-0.011-0.163,0.02-0.229c0.06-0.136,0.133-0.271,0.224-0.387c0.641-0.819,1.366-1.55,2.259-2.096
		c0.625-0.383,1.304-0.615,2.036-0.688c0.048-0.004,0.096-0.015,0.145-0.017C12.923,9.255,12.993,9.257,13.063,9.257"/>
	<path display="inline" fill="#919191" d="M14.439,4.85c0.836,0.002,1.453,0.505,1.597,1.302c0.153,0.854-0.327,1.724-1.134,2.052
		c-0.512,0.208-1.024,0.241-1.541,0.027c-0.534-0.221-0.804-0.645-0.883-1.198C12.307,5.837,13.307,4.841,14.439,4.85"/>
</g>
<g id="Layer_9" display="none">
	<path display="inline" fill="#919191" d="M12.501,24.221c-6.476,0-11.72-5.246-11.72-11.719c0-6.475,5.244-11.719,11.72-11.719
		c6.472,0,11.718,5.244,11.718,11.719C24.221,18.975,18.975,24.221,12.501,24.221"/>
	<path display="inline" fill="#919191" d="M12.501,24.221c-6.476,0-11.72-5.246-11.72-11.719c0-6.475,5.244-11.719,11.72-11.719
		c6.472,0,11.718,5.244,11.718,11.719C24.221,18.975,18.975,24.221,12.501,24.221 M12.501,0C5.599,0,0,5.598,0,12.501
		C0,19.4,5.599,25,12.501,25C19.402,25,25,19.4,25,12.501C25,5.598,19.402,0,12.501,0"/>
	<path display="inline" fill="#FFFFFF" d="M10.539,6.642c1.51,0,2.736,1.224,2.736,2.733c0,1.51-1.227,2.735-2.736,2.735
		c-1.509,0-2.736-1.225-2.736-2.735C7.803,7.866,9.029,6.642,10.539,6.642 M10.539,12.889c1.947,0,3.516-1.574,3.516-3.514
		c0-1.941-1.569-3.516-3.516-3.516c-1.938,0-3.514,1.574-3.514,3.516C7.024,11.315,8.601,12.889,10.539,12.889 M13.672,20.617
		c-0.377,0.056-0.771,0.084-1.17,0.084c-2.67,0-5.034-1.276-6.531-3.247c0.41-1.72,1.953-3,3.795-3c2.025,0,3.691,1.542,3.89,3.517
		h0.017L13.672,20.617L13.672,20.617z M13.792,15.967c-0.817-1.373-2.313-2.295-4.026-2.295c-1.972,0-3.659,1.225-4.35,2.95
		c-0.214,0.797,0.01,1.399,0.164,1.507c1.667,2.023,3.922,3.357,6.922,3.355c0.646,0,1.371-0.069,1.977-0.203v-3.125
		C14.479,16.813,13.792,15.967,13.792,15.967"/>
	<path display="inline" fill="#FFFFFF" d="M17.078,16.475c-0.287,0-0.521-0.233-0.521-0.521v-5.206c0-0.287,0.233-0.521,0.521-0.521
		S17.6,10.46,17.6,10.748v5.206C17.6,16.24,17.365,16.475,17.078,16.475"/>
	<path display="inline" fill="#FFFFFF" d="M19.688,13.87h-5.211c-0.289,0-0.521-0.233-0.521-0.521c0-0.289,0.231-0.521,0.521-0.521
		h5.211c0.287,0,0.521,0.232,0.521,0.521C20.209,13.637,19.977,13.87,19.688,13.87"/>
</g>
<g id="Layer_10" display="none">
	<path display="inline" fill="#797979" d="M11.563-0.317h1.969c0.009,0.039,0.038,0.044,0.071,0.047
		c1.813,0.159,3.522,0.622,5.099,1.558c1.38,0.82,2.629,1.773,3.62,3.047c0.724,0.929,1.371,1.892,1.826,2.979
		c0.436,1.044,0.769,2.113,0.914,3.237c0.039,0.306,0.043,0.619,0.139,0.917v1.948c-0.098,0.111-0.078,0.255-0.092,0.384
		c-0.219,2.035-0.937,3.892-2.045,5.606c-0.742,1.15-1.689,2.134-2.768,2.968c-2.628,2.034-5.64,2.88-8.952,2.563
		c-2.536-0.244-4.804-1.164-6.759-2.819c-1.463-1.237-2.615-2.693-3.414-4.423c-0.997-2.157-1.349-4.416-1.091-6.775
		c0.147-1.342,0.526-2.616,1.06-3.849c0.476-1.093,1.16-2.063,1.914-2.981c1.083-1.32,2.454-2.299,3.953-3.099
		C8.183,0.366,9.46,0.01,10.782-0.186C11.042-0.226,11.314-0.204,11.563-0.317 M2.612,6.607C2.72,6.488,2.881,6.393,2.824,6.126
		C2.719,6.308,2.645,6.438,2.57,6.569C2.546,6.593,2.524,6.627,2.554,6.648C2.594,6.678,2.604,6.638,2.612,6.607 M20.305,4.905
		c-0.103,0.036-0.203,0.056-0.283,0.104c-0.16,0.098-0.231,0.035-0.273-0.119c-0.038-0.14-0.094-0.262-0.275-0.243
		c-0.08,0.008-0.084-0.058-0.102-0.111c-0.057-0.179,0.064-0.412,0.271-0.504c0.119-0.052,0.246-0.088,0.364-0.143
		c0.224-0.103,0.241-0.255,0.063-0.405c-0.432-0.363-0.887-0.697-1.368-0.989c-1.24-0.751-2.563-1.319-3.993-1.585
		c-1.851-0.344-3.69-0.283-5.488,0.346c-0.643,0.223-1.28,0.453-1.884,0.761c-0.512,0.262-1.008,0.552-1.49,0.911
		c0.05,0.009,0.072,0.021,0.093,0.017c0.404-0.085,0.731,0.191,1.11,0.23c0.04,0.004,0.085,0.014,0.089,0.066
		c0.013,0.173,0.143,0.141,0.252,0.145C7.498,3.389,7.605,3.4,7.711,3.392C7.78,3.386,7.901,3.465,7.91,3.34
		c0.006-0.103-0.06-0.196-0.203-0.189C7.54,3.161,7.371,3.154,7.123,3.154c0.152-0.106,0.209-0.182,0.15-0.29
		C7.22,2.768,7.128,2.814,7.053,2.81C6.938,2.802,6.82,2.808,6.64,2.808c0.235-0.174,0.407-0.309,0.585-0.433
		c0.241-0.164,0.739-0.073,0.908,0.157C8.335,2.809,8.701,2.847,8.94,2.6c0.129-0.132,0.23-0.154,0.355-0.018
		C9.09,2.849,8.861,3.067,8.479,2.994c-0.06-0.012-0.147-0.013-0.114,0.092c0.03,0.101-0.033,0.299,0.094,0.285
		c0.24-0.025,0.546,0.173,0.722-0.158C9.194,3.186,9.267,3.186,9.316,3.18c0.09-0.011,0.179-0.02,0.27-0.024
		c0.125-0.007,0.096-0.108,0.117-0.18c0.018-0.063,0.01-0.104-0.067-0.126C9.573,2.832,9.443,2.891,9.469,2.749
		c0.019-0.102,0.058-0.205,0.19-0.225c0.271-0.039,0.539-0.01,0.86,0.018c-0.145,0.129-0.237,0.219-0.339,0.3
		c-0.124,0.099-0.065,0.224-0.017,0.308c0.085,0.148,0.267,0.108,0.4,0.102c0.094-0.005,0.02-0.138,0.03-0.21
		c0.016-0.106-0.079-0.243,0.041-0.317c0.379-0.24,0.802-0.336,1.236-0.22c0.289,0.078,0.558,0.23,0.833,0.353
		c0.061,0.028,0.156,0.04,0.135,0.143c-0.053,0.26,0.057,0.4,0.327,0.41c-0.132,0.32-0.133,0.332-0.416,0.316
		c-0.179-0.01-0.276,0.046-0.309,0.218c-0.025,0.124-0.089,0.165-0.226,0.127c-0.295-0.082-0.596-0.144-0.952-0.227
		c0.315-0.169,0.584-0.313,0.858-0.46c-0.287-0.278-0.288-0.287-0.653-0.24c-0.179,0.022-0.385-0.021-0.522,0.147
		c-0.118,0.146-0.254,0.247-0.457,0.235c-0.148-0.009-0.1,0.084-0.072,0.159c0.017,0.053,0.116,0.04,0.102,0.118
		c-0.087,0.06-0.254-0.01-0.276,0.105C10.208,4.081,10.089,4.032,10,4.034C9.891,4.036,9.92,3.923,9.913,3.863
		C9.897,3.73,9.854,3.726,9.724,3.752C9.21,3.859,8.85,4.234,8.412,4.471c-0.04,0.021-0.047,0.057-0.046,0.103
		c0.007,0.26,0.223,0.509,0.489,0.555c0.152,0.026,0.352,0,0.446,0.087c0.102,0.092,0.02,0.293,0.035,0.445
		c0.006,0.056-0.043,0.146,0.055,0.157c0.087,0.01,0.187,0.014,0.237-0.086C9.68,5.63,9.737,5.53,9.776,5.425
		c0.038-0.102,0.107-0.15,0.207-0.184c0.477-0.16,0.476-0.161,0.476-0.645V4.548c0.001-0.372,0.241-0.56,0.608-0.472
		c0.088,0.021,0.174,0.052,0.262,0.063c0.229,0.029,0.323,0.143,0.27,0.376c-0.017,0.077-0.09,0.187,0.013,0.24
		C11.696,4.8,11.8,4.762,11.895,4.719c0.159-0.073,0.307-0.178,0.495-0.216c0.002,0.07,0.014,0.126,0.009,0.181
		c-0.03,0.304,0.019,0.563,0.359,0.673c0.084,0.027,0.087,0.096,0.096,0.174c0.028,0.225-0.058,0.351-0.285,0.382
		C12.512,5.92,12.446,5.931,12.438,6c-0.01,0.078,0.048,0.11,0.112,0.138c0.106,0.043,0.208,0.094,0.314,0.139
		c0.141,0.06,0.093,0.183,0.073,0.272c-0.021,0.098-0.123,0.054-0.187,0.037c-0.134-0.033-0.265-0.082-0.397-0.124
		c-0.258-0.08-0.277-0.148-0.097-0.349c0.071-0.077,0.09-0.167,0.01-0.229c-0.057-0.047-0.127-0.046-0.19,0.056
		c-0.103,0.164-0.491,0.159-0.596,0.005c-0.094-0.136-0.227-0.117-0.353-0.105c-0.094,0.009-0.156,0.066-0.161,0.179
		c-0.006,0.108,0.057,0.13,0.137,0.164c0.072,0.03,0.162-0.001,0.231,0.076c-0.085,0.091-0.12,0.261-0.302,0.104
		c-0.08-0.07-0.171-0.028-0.257,0.046c-0.286,0.247-0.505,0.555-0.861,0.742C9.553,7.34,9.302,7.695,9.016,7.993
		C8.992,8.02,8.958,8.063,8.962,8.097c0.026,0.265-0.171,0.36-0.352,0.472C8.492,8.641,8.374,8.715,8.26,8.797
		c-0.268,0.19-0.478,0.411-0.39,0.782c0.021,0.087,0.003,0.182,0.003,0.293c-0.253-0.12-0.551-0.149-0.47-0.523
		C7.43,9.222,7.306,9.245,7.231,9.245c-0.354-0.002-0.707-0.02-1.059,0.007C5.849,9.275,5.54,9.428,5.329,9.648
		c-0.238,0.248-0.363,0.598-0.4,0.947c-0.019,0.179,0.059,0.41,0.225,0.473c0.224,0.085,0.483,0.138,0.72-0.052
		c0.202-0.161,0.432-0.289,0.649-0.433c0.228,0.315-0.098,0.514-0.144,0.775c0.116,0.021,0.228,0.054,0.34,0.058
		c0.229,0.01,0.358,0.086,0.328,0.345c-0.016,0.135,0.038,0.276,0.025,0.411c-0.027,0.264,0.085,0.331,0.341,0.395
		c0.436,0.109,0.758,0.057,0.987-0.346c0.109-0.191,0.262-0.267,0.487-0.178c0.182,0.072,0.404,0.017,0.539,0.23
		c0.164,0.261,0.646,0.265,0.835,0.022c0.037-0.047,0.06-0.035,0.099-0.017c0.145,0.07,0.306,0.117,0.379,0.285
		c0.17,0.398,0.448,0.612,0.909,0.513c0.083-0.018,0.159,0,0.199,0.095c0.113,0.265,0.277,0.517,0.245,0.822
		c-0.015,0.141,0.064,0.187,0.18,0.241c0.464,0.224,0.951,0.275,1.458,0.242c0.149-0.011,0.234,0.043,0.31,0.174
		c0.08,0.142,0.135,0.307,0.331,0.363c0.318,0.094,0.367,0.25,0.184,0.532c-0.049,0.074-0.104,0.146-0.166,0.21
		c-0.209,0.221-0.343,0.46-0.332,0.778c0.006,0.217-0.07,0.437-0.063,0.651c0.009,0.287-0.132,0.453-0.349,0.614
		c-0.201,0.151-0.408,0.078-0.611,0.083c-0.141,0.003-0.209,0.049-0.293,0.158c-0.17,0.223-0.064,0.434-0.019,0.646
		c0.033,0.156,0.058,0.283-0.051,0.449c-0.257,0.395-0.617,0.717-0.806,1.155c-0.021,0.049-0.061,0.074-0.107,0.094
		c-0.298,0.13-0.567,0.328-0.912,0.337c-0.084,0.002-0.162,0.021-0.167,0.135c-0.005,0.115,0.087,0.104,0.149,0.119
		c0.219,0.051,0.171,0.17,0.08,0.297c-0.033,0.045-0.077,0.086-0.123,0.117c-0.124,0.086-0.085,0.157-0.005,0.252
		c0.069,0.082,0.153,0.088,0.243,0.08c0.139-0.014,0.173,0.051,0.147,0.17c-0.017,0.078-0.029,0.158-0.055,0.233
		c-0.083,0.235-0.085,0.438,0.171,0.579c0.077,0.042,0.151,0.104,0.207,0.171c0.081,0.099,0.049,0.24-0.055,0.252
		c-0.224,0.024-0.496,0.097-0.673-0.041c-0.69-0.542-1.287-1.151-1.136-2.144c0.02-0.129,0.063-0.275-0.063-0.389
		c-0.303-0.269-0.352-0.594-0.224-0.961c0.021-0.061,0.028-0.126,0.038-0.189c0.019-0.118,0.06-0.241-0.133-0.271
		c-0.111-0.018-0.08-0.126-0.08-0.201c-0.002-0.397-0.037-0.801,0.009-1.192c0.054-0.457-0.106-0.753-0.513-0.95
		c-0.312-0.15-0.685-0.249-0.681-0.704c0-0.03-0.05-0.063-0.073-0.095c-0.149-0.184-0.284-0.381-0.448-0.549
		c-0.218-0.226-0.349-0.453-0.224-0.774c0.04-0.103,0.037-0.228,0.025-0.338c-0.02-0.222,0.06-0.371,0.261-0.465
		c0.283-0.134,0.392-0.323,0.315-0.654c-0.081-0.357-0.047-0.38-0.42-0.379c-0.329,0.001-0.607-0.056-0.796-0.36
		c-0.242-0.393-0.613-0.587-1.073-0.622c-0.096-0.007-0.157-0.038-0.127-0.152c0.016-0.057,0.062-0.141-0.034-0.165
		c-0.099-0.025-0.281-0.057-0.298-0.023c-0.109,0.222-0.255,0.063-0.375,0.049c-0.436-0.052-0.815-0.19-1.004-0.642
		c-0.045-0.107-0.082-0.184-0.003-0.279c0.084-0.104,0.054-0.187-0.008-0.302C3.457,9.887,3.03,9.521,3.059,8.95
		C3.06,8.927,3.052,8.9,3.042,8.879C3.008,8.802,2.932,8.847,2.874,8.84C2.782,8.83,2.792,8.9,2.802,8.954
		c0.046,0.276,0.033,0.567,0.24,0.801c0.09,0.103,0.156,0.228,0.228,0.346c0.074,0.124,0.058,0.323-0.023,0.351
		c-0.118,0.04-0.314,0.056-0.406-0.116C2.615,9.918,2.334,9.517,2.434,9.002c0.011-0.047-0.002-0.098,0.004-0.146
		c0.014-0.111-0.019-0.191-0.136-0.22c-0.315-0.073-0.4-0.282-0.348-0.573c0.008-0.044,0.001-0.09,0.001-0.136
		c-1.146,2.724-1.232,5.489-0.273,8.269c0.969,2.804,2.784,4.979,5.405,6.379c5.879,3.14,11.804,0.586,14.422-2.869
		c-0.327-0.012-0.317-0.014-0.331-0.344c-0.009-0.203,0.082-0.43-0.098-0.604c-0.305-0.296-0.393-0.656-0.339-1.063
		c0.024-0.206-0.03-0.371-0.2-0.512c-0.178-0.148-0.208-0.41-0.107-0.617c0.102-0.202,0.188-0.412,0.303-0.607
		c0.063-0.109,0.043-0.188-0.016-0.287c-0.154-0.258-0.273-0.539-0.455-0.775c-0.264-0.351-0.279-0.721-0.209-1.123
		c0.059-0.332,0.047-0.33-0.302-0.362c-0.221-0.021-0.442-0.013-0.58-0.265c-0.094-0.17-0.594-0.144-0.7,0.033
		c-0.084,0.143-0.188,0.141-0.322,0.148c-0.252,0.018-0.504-0.035-0.764,0.064c-0.145,0.057-0.387,0.104-0.513-0.104
		c-0.14-0.229-0.312-0.443-0.515-0.61c-0.45-0.375-0.563-0.841-0.48-1.386c0.012-0.079-0.004-0.154,0.104-0.191
		c0.152-0.054,0.107-0.207,0.123-0.316c0.02-0.141-0.112-0.063-0.178-0.086c-0.113-0.043-0.18-0.33-0.091-0.436
		c0.229-0.27,0.535-0.447,0.827-0.632c0.285-0.18,0.443-0.381,0.377-0.726c-0.012-0.063-0.042-0.168,0.029-0.202
		c0.258-0.122,0.461-0.367,0.795-0.323c0.199,0.025,0.434,0.08,0.604-0.025c0.379-0.236,0.799-0.21,1.211-0.243
		c0.447-0.036,0.459-0.025,0.447,0.417c-0.003,0.164,0.059,0.217,0.205,0.258c0.344,0.096,0.71,0.112,1.021,0.324
		c0.104,0.072,0.217,0.034,0.201-0.142c-0.006-0.068-0.055-0.187,0.069-0.199c0.244-0.024,0.494-0.116,0.722,0.09
		c0.123,0.11,0.244,0.255,0.428,0.267c0.254,0.015,0.509,0.002,0.763,0.004c0.126,0.001,0.16-0.05,0.116-0.166
		C23.588,8.78,23.514,8.6,23.468,8.412c-0.048-0.198-0.146-0.265-0.356-0.252c-0.452,0.026-0.633-0.146-0.67-0.593
		c-0.008-0.07,0.021-0.169-0.049-0.204c-0.074-0.035-0.141,0.056-0.215,0.083c-0.095,0.034-0.094,0.127-0.115,0.199
		c-0.047,0.149-0.08,0.303-0.123,0.464c-0.28-0.234-0.521-0.461-0.471-0.845c0.006-0.038-0.001-0.098-0.025-0.115
		c-0.311-0.229-0.524-0.66-1.033-0.477c0.037,0.278,0.172,0.493,0.438,0.633c0.182,0.096,0.407,0.131,0.293,0.474
		c-0.065,0.196-0.138,0.299-0.307,0.317c-0.159,0.017-0.322-0.029-0.361-0.248h0.108c0.116-0.002,0.276,0.064,0.315-0.095
		c0.035-0.138-0.14-0.151-0.221-0.215c-0.267-0.207-0.615-0.33-0.715-0.716c-0.038,0.029-0.066,0.045-0.089,0.067
		c-0.149,0.154-0.302,0.3-0.547,0.19c-0.07-0.031-0.136,0-0.164,0.065c-0.097,0.22-0.332,0.361-0.397,0.575
		c-0.16,0.506-0.553,0.431-0.928,0.433c-0.041,0-0.084,0.008-0.122-0.001c-0.208-0.05-0.418-0.094-0.417-0.377
		c0-0.104-0.031-0.208-0.042-0.313c-0.028-0.274,0.093-0.412,0.356-0.495c0.269-0.085,0.519-0.017,0.771,0.037
		c0.116,0.024,0.13-0.033,0.134-0.108c0.006-0.074,0.121-0.185-0.043-0.21c-0.265-0.043-0.107-0.218-0.107-0.333
		c0-0.133,0.031-0.255,0.221-0.248c0.293,0.01,0.514-0.112,0.643-0.385c0.16-0.335,0.459-0.352,0.771-0.308
		c0.382,0.053,0.381,0.059,0.332-0.304C20.322,5.047,20.314,4.984,20.305,4.905 M21.048,4.454c0.021,0.349-0.055,0.612-0.432,0.701
		c-0.052,0.012-0.109,0.041-0.093,0.119c0.018,0.077,0.062,0.104,0.139,0.104c0.205-0.002,0.408,0.01,0.611-0.001
		c0.151-0.008,0.317-0.306,0.232-0.406C21.359,4.794,21.202,4.626,21.048,4.454 M8.075,6.541c0.064,0,0.131,0.007,0.194-0.002
		c0.074-0.011,0.192,0.058,0.2-0.097C8.475,6.314,8.4,6.189,8.307,6.172c-0.24-0.048-0.484-0.011-0.699,0.125
		c-0.05,0.03-0.076,0.09-0.064,0.145c0.012,0.056,0.077,0.046,0.121,0.063C7.799,6.555,7.938,6.538,8.075,6.541 M8.141,6.653
		c-0.388-0.05-0.645,0.152-0.659,0.489C7.475,7.25,7.54,7.282,7.613,7.319c0.086,0.043,0.129-0.023,0.15-0.081
		C7.847,7.024,8.025,6.871,8.141,6.653 M6.086,3.763c0.065,0,0.131,0.006,0.195-0.002c0.146-0.018,0.21-0.116,0.206-0.249
		c-0.005-0.15-0.131-0.067-0.203-0.089C6.123,3.375,6.008,3.53,5.849,3.516c-0.07-0.006-0.045,0.088-0.05,0.14
		C5.793,3.719,5.813,3.765,5.891,3.763C5.956,3.761,6.021,3.762,6.086,3.763 M7.425,5.452c0.007-0.158-0.132-0.129-0.207-0.131
		c-0.13-0.002-0.312,0.023-0.313,0.172C6.903,5.595,6.953,5.777,7.109,5.804C7.266,5.831,7.418,5.645,7.425,5.452 M6.149,4.366
		V4.354c0.048,0,0.097-0.003,0.145,0.001C6.435,4.366,6.5,4.318,6.491,4.165C6.479,3.985,6.356,4.063,6.28,4.073
		C6.161,4.087,6.047,4.134,5.928,4.157C5.861,4.173,5.822,4.198,5.836,4.269C5.848,4.33,5.891,4.363,5.954,4.366
		C6.02,4.369,6.084,4.366,6.149,4.366 M8.188,7.521c0.102,0,0.203,0.018,0.296-0.004c0.178-0.04,0.24-0.168,0.225-0.345
		C8.694,7.017,8.567,7.082,8.532,7.11C8.391,7.217,8.168,7.262,8.188,7.521 M9.131,7.279C9.25,7.273,9.368,7.316,9.355,7.136
		C9.335,6.872,9.098,6.973,8.97,6.899C8.894,6.854,8.883,6.942,8.89,6.997C8.912,7.148,8.92,7.316,9.131,7.279 M8.415,6.844
		c0.017,0.033-0.072,0.164,0.082,0.142C8.639,6.964,8.796,6.939,8.795,6.74c0-0.17-0.133-0.091-0.213-0.107
		C8.423,6.599,8.38,6.679,8.415,6.844 M22.884,7.055c-0.097,0.204-0.067,0.394-0.045,0.562c0.019,0.129,0.164,0.044,0.246,0.041
		c0.099-0.002,0.041-0.079,0.022-0.123C23.04,7.384,22.969,7.235,22.884,7.055 M2.37,6.927c-0.18,0.135-0.28,0.237-0.183,0.45
		C2.249,7.225,2.299,7.103,2.37,6.927"/>
	<path display="inline" fill="#797979" d="M11.563,0h1.968c0.01,0.039,0.039,0.044,0.072,0.047c1.813,0.159,3.522,0.622,5.098,1.558
		c1.381,0.82,2.629,1.773,3.621,3.047c0.723,0.929,1.371,1.892,1.826,2.979c0.436,1.044,0.768,2.113,0.914,3.237
		c0.039,0.306,0.043,0.619,0.139,0.917v1.947c-0.098,0.113-0.078,0.256-0.092,0.385c-0.219,2.035-0.937,3.892-2.045,5.605
		c-0.742,1.15-1.689,2.135-2.769,2.969c-2.627,2.033-5.639,2.879-8.952,2.563c-2.536-0.243-4.804-1.163-6.759-2.818
		c-1.463-1.237-2.615-2.693-3.414-4.424c-0.997-2.156-1.349-4.414-1.091-6.775c0.147-1.342,0.526-2.616,1.06-3.849
		C1.616,6.295,2.3,5.325,3.054,4.407c1.083-1.32,2.454-2.299,3.953-3.099C8.183,0.682,9.46,0.325,10.783,0.13
		C11.042,0.092,11.315,0.113,11.563,0 M2.613,6.925c0.108-0.119,0.269-0.214,0.212-0.481C2.72,6.626,2.645,6.757,2.571,6.887
		C2.546,6.91,2.525,6.944,2.554,6.966C2.594,6.995,2.604,6.955,2.613,6.925 M20.305,5.223c-0.102,0.036-0.203,0.056-0.283,0.104
		c-0.16,0.098-0.231,0.035-0.272-0.119c-0.039-0.14-0.095-0.262-0.276-0.243c-0.08,0.008-0.084-0.058-0.101-0.111
		c-0.058-0.179,0.063-0.412,0.271-0.504c0.121-0.052,0.248-0.088,0.364-0.143c0.224-0.103,0.242-0.255,0.063-0.405
		c-0.432-0.363-0.887-0.697-1.367-0.989c-1.24-0.751-2.564-1.319-3.994-1.585c-1.85-0.344-3.69-0.283-5.488,0.346
		c-0.642,0.223-1.279,0.452-1.884,0.76C6.826,2.596,6.33,2.886,5.847,3.245c0.05,0.009,0.072,0.021,0.093,0.017
		c0.404-0.085,0.731,0.191,1.11,0.23c0.04,0.004,0.085,0.014,0.089,0.066c0.013,0.173,0.143,0.141,0.252,0.145
		c0.107,0.003,0.215,0.015,0.32,0.006C7.78,3.703,7.901,3.782,7.91,3.657c0.007-0.102-0.06-0.196-0.202-0.188
		c-0.167,0.01-0.336,0.003-0.584,0.003c0.152-0.106,0.209-0.182,0.15-0.29C7.22,3.085,7.128,3.132,7.053,3.127
		C6.938,3.119,6.821,3.125,6.64,3.125c0.235-0.174,0.407-0.309,0.585-0.433C7.466,2.528,7.964,2.619,8.133,2.85
		c0.202,0.276,0.568,0.314,0.808,0.067c0.129-0.132,0.23-0.154,0.355-0.018C9.09,3.166,8.862,3.385,8.479,3.312
		C8.419,3.3,8.332,3.299,8.365,3.403c0.03,0.101-0.033,0.299,0.094,0.285C8.699,3.663,9.004,3.861,9.18,3.53
		c0.015-0.027,0.087-0.027,0.137-0.033c0.09-0.011,0.179-0.02,0.27-0.024c0.125-0.007,0.096-0.108,0.117-0.18
		c0.018-0.063,0.01-0.104-0.067-0.126C9.574,3.149,9.444,3.208,9.469,3.066c0.019-0.102,0.058-0.205,0.19-0.225
		c0.271-0.039,0.539-0.01,0.86,0.018c-0.145,0.129-0.237,0.219-0.339,0.3c-0.124,0.099-0.065,0.224-0.017,0.308
		c0.085,0.148,0.267,0.108,0.4,0.102c0.094-0.005,0.02-0.138,0.03-0.21c0.016-0.106-0.079-0.243,0.041-0.317
		c0.379-0.24,0.802-0.336,1.236-0.22c0.289,0.078,0.558,0.23,0.833,0.353c0.061,0.028,0.156,0.04,0.135,0.143
		c-0.053,0.26,0.057,0.4,0.328,0.41c-0.133,0.32-0.133,0.332-0.417,0.316c-0.179-0.01-0.276,0.046-0.309,0.218
		c-0.025,0.124-0.089,0.165-0.226,0.127c-0.295-0.082-0.596-0.144-0.952-0.227c0.315-0.169,0.584-0.313,0.858-0.46
		c-0.287-0.278-0.288-0.287-0.653-0.24c-0.179,0.022-0.385-0.021-0.522,0.147c-0.118,0.146-0.254,0.247-0.457,0.235
		c-0.148-0.009-0.1,0.084-0.072,0.159c0.017,0.053,0.116,0.04,0.102,0.118c-0.087,0.06-0.254-0.01-0.276,0.105
		C10.208,4.398,10.089,4.35,10,4.352C9.891,4.354,9.92,4.24,9.914,4.181C9.898,4.048,9.854,4.043,9.725,4.07
		C9.21,4.177,8.85,4.552,8.413,4.788c-0.04,0.021-0.047,0.057-0.046,0.103C8.374,5.151,8.59,5.4,8.856,5.446
		c0.152,0.026,0.352,0,0.446,0.087c0.102,0.092,0.02,0.293,0.035,0.445c0.006,0.056-0.043,0.146,0.055,0.157
		c0.087,0.01,0.187,0.014,0.237-0.086C9.68,5.947,9.738,5.848,9.777,5.742c0.038-0.102,0.107-0.15,0.207-0.184
		c0.477-0.16,0.476-0.161,0.476-0.645V4.865c0.001-0.372,0.241-0.56,0.608-0.472c0.088,0.021,0.174,0.052,0.262,0.063
		c0.229,0.029,0.323,0.143,0.27,0.376c-0.017,0.077-0.09,0.187,0.013,0.24c0.085,0.044,0.188,0.006,0.283-0.037
		c0.159-0.073,0.307-0.178,0.495-0.216C12.393,4.889,12.405,4.945,12.4,5c-0.03,0.304,0.019,0.563,0.359,0.673
		c0.084,0.027,0.087,0.096,0.096,0.174c0.028,0.225-0.058,0.351-0.285,0.382c-0.057,0.008-0.122,0.019-0.131,0.088
		c-0.01,0.078,0.048,0.11,0.112,0.138c0.106,0.043,0.208,0.094,0.314,0.139c0.141,0.06,0.093,0.183,0.073,0.272
		c-0.021,0.098-0.123,0.054-0.187,0.037c-0.134-0.033-0.265-0.082-0.397-0.124c-0.258-0.08-0.277-0.148-0.097-0.349
		c0.071-0.077,0.09-0.167,0.01-0.229c-0.057-0.047-0.127-0.046-0.19,0.056c-0.103,0.164-0.491,0.159-0.596,0.005
		c-0.094-0.136-0.227-0.117-0.353-0.105c-0.094,0.009-0.156,0.066-0.161,0.179c-0.006,0.108,0.057,0.13,0.137,0.164
		c0.072,0.03,0.162-0.001,0.231,0.076c-0.085,0.091-0.12,0.261-0.302,0.104c-0.08-0.07-0.171-0.028-0.257,0.046
		c-0.286,0.247-0.505,0.555-0.861,0.742c-0.362,0.19-0.613,0.546-0.899,0.844c-0.024,0.027-0.058,0.07-0.054,0.104
		c0.026,0.265-0.171,0.36-0.352,0.472C8.492,8.96,8.374,9.034,8.26,9.116c-0.267,0.189-0.477,0.409-0.389,0.78
		c0.021,0.087,0.003,0.182,0.003,0.293c-0.253-0.12-0.551-0.149-0.47-0.523c0.027-0.127-0.097-0.104-0.172-0.104
		C6.878,9.56,6.525,9.542,6.173,9.569C5.849,9.593,5.541,9.745,5.33,9.966c-0.238,0.248-0.363,0.598-0.4,0.947
		c-0.019,0.179,0.059,0.41,0.225,0.473c0.224,0.085,0.483,0.138,0.72-0.052c0.202-0.161,0.432-0.289,0.649-0.433
		c0.228,0.315-0.098,0.514-0.144,0.775c0.116,0.021,0.228,0.054,0.34,0.058c0.229,0.01,0.358,0.086,0.328,0.345
		c-0.016,0.135,0.038,0.276,0.025,0.411c-0.027,0.264,0.085,0.331,0.341,0.395c0.436,0.109,0.758,0.057,0.987-0.346
		c0.109-0.191,0.262-0.267,0.487-0.178c0.182,0.072,0.404,0.017,0.539,0.23c0.164,0.261,0.646,0.265,0.835,0.022
		c0.037-0.047,0.06-0.035,0.099-0.017c0.145,0.07,0.306,0.117,0.379,0.285c0.17,0.398,0.448,0.612,0.909,0.514
		c0.083-0.019,0.159,0,0.199,0.095c0.113,0.265,0.277,0.516,0.245,0.821c-0.015,0.142,0.064,0.187,0.18,0.241
		c0.464,0.224,0.952,0.276,1.458,0.242c0.15-0.01,0.236,0.044,0.312,0.174c0.08,0.142,0.136,0.308,0.33,0.364
		c0.319,0.093,0.369,0.25,0.185,0.532c-0.05,0.073-0.104,0.146-0.166,0.21c-0.209,0.22-0.343,0.46-0.332,0.777
		c0.006,0.217-0.07,0.437-0.064,0.652c0.01,0.287-0.131,0.452-0.348,0.614c-0.201,0.151-0.408,0.077-0.611,0.083
		c-0.141,0.003-0.209,0.048-0.293,0.158c-0.17,0.223-0.064,0.433-0.019,0.646c0.033,0.156,0.058,0.283-0.051,0.449
		c-0.257,0.395-0.617,0.717-0.806,1.154c-0.021,0.05-0.061,0.074-0.107,0.095c-0.298,0.129-0.567,0.328-0.912,0.336
		c-0.084,0.002-0.162,0.021-0.167,0.135c-0.005,0.116,0.087,0.104,0.149,0.119c0.219,0.052,0.171,0.17,0.08,0.297
		c-0.033,0.046-0.077,0.086-0.123,0.118c-0.124,0.085-0.085,0.157-0.005,0.252c0.069,0.082,0.153,0.087,0.243,0.079
		c0.139-0.013,0.173,0.051,0.147,0.17c-0.017,0.078-0.029,0.159-0.055,0.233c-0.083,0.236-0.085,0.439,0.171,0.58
		c0.077,0.041,0.151,0.103,0.207,0.17c0.081,0.1,0.049,0.24-0.055,0.252c-0.224,0.025-0.496,0.098-0.673-0.041
		c-0.69-0.541-1.287-1.151-1.136-2.144c0.02-0.128,0.063-0.274-0.063-0.388c-0.303-0.27-0.352-0.594-0.224-0.961
		c0.021-0.061,0.028-0.126,0.038-0.189c0.019-0.119,0.06-0.242-0.133-0.271c-0.111-0.018-0.08-0.126-0.08-0.202
		c-0.002-0.397-0.037-0.8,0.009-1.192c0.054-0.457-0.106-0.752-0.513-0.949c-0.312-0.151-0.685-0.25-0.681-0.705
		c0-0.03-0.05-0.063-0.073-0.094c-0.149-0.185-0.284-0.382-0.448-0.55c-0.218-0.225-0.349-0.452-0.224-0.774
		c0.04-0.102,0.037-0.227,0.025-0.338c-0.02-0.221,0.06-0.371,0.261-0.465c0.283-0.133,0.392-0.322,0.315-0.654
		c-0.081-0.356-0.047-0.379-0.42-0.379c-0.329,0.002-0.607-0.056-0.796-0.359c-0.242-0.393-0.613-0.587-1.073-0.622
		c-0.096-0.007-0.157-0.038-0.127-0.152c0.016-0.057,0.062-0.141-0.034-0.165c-0.099-0.025-0.281-0.057-0.298-0.023
		c-0.109,0.222-0.255,0.063-0.375,0.049c-0.436-0.052-0.815-0.19-1.004-0.642c-0.045-0.107-0.082-0.184-0.003-0.279
		c0.084-0.104,0.054-0.187-0.008-0.302c-0.242-0.448-0.669-0.814-0.64-1.385C3.065,9.248,3.057,9.222,3.047,9.2
		C3.008,9.119,2.932,9.164,2.875,9.157c-0.092-0.01-0.082,0.06-0.072,0.114c0.046,0.276,0.033,0.567,0.24,0.801
		c0.09,0.103,0.156,0.228,0.228,0.346c0.074,0.124,0.058,0.323-0.023,0.351c-0.118,0.04-0.314,0.056-0.406-0.116
		C2.617,10.236,2.336,9.835,2.436,9.32C2.447,9.273,2.434,9.222,2.44,9.174c0.014-0.111-0.019-0.191-0.136-0.22
		C1.988,8.88,1.903,8.672,1.955,8.38c0.008-0.044,0.001-0.09,0.001-0.136c-1.146,2.724-1.232,5.488-0.273,8.268
		c0.969,2.805,2.784,4.979,5.405,6.379c5.879,3.141,11.803,0.586,14.422-2.869c-0.328-0.012-0.318-0.013-0.332-0.344
		c-0.008-0.203,0.082-0.429-0.098-0.603c-0.305-0.296-0.391-0.657-0.338-1.063c0.025-0.205-0.031-0.371-0.201-0.512
		c-0.178-0.148-0.207-0.41-0.107-0.617c0.103-0.201,0.189-0.41,0.303-0.607c0.063-0.108,0.043-0.188-0.016-0.286
		c-0.154-0.259-0.273-0.539-0.455-0.776c-0.264-0.35-0.279-0.72-0.209-1.123c0.06-0.331,0.047-0.329-0.301-0.361
		c-0.221-0.021-0.443-0.013-0.58-0.265c-0.094-0.171-0.594-0.144-0.701,0.032c-0.084,0.143-0.188,0.141-0.322,0.148
		c-0.252,0.018-0.504-0.035-0.764,0.064c-0.145,0.057-0.387,0.104-0.512-0.104c-0.141-0.23-0.313-0.443-0.514-0.61
		c-0.451-0.375-0.564-0.841-0.482-1.386c0.012-0.079-0.004-0.154,0.104-0.191c0.152-0.054,0.107-0.207,0.123-0.316
		c0.021-0.141-0.112-0.063-0.178-0.086c-0.113-0.043-0.18-0.33-0.09-0.436c0.229-0.27,0.535-0.447,0.826-0.632
		c0.285-0.18,0.443-0.381,0.377-0.726c-0.012-0.063-0.041-0.168,0.031-0.202c0.256-0.122,0.459-0.367,0.793-0.323
		c0.201,0.025,0.434,0.08,0.604-0.025c0.379-0.236,0.799-0.21,1.211-0.243c0.447-0.036,0.459-0.025,0.447,0.417
		c-0.002,0.164,0.059,0.217,0.205,0.258c0.344,0.096,0.711,0.112,1.021,0.324c0.104,0.072,0.217,0.034,0.201-0.142
		c-0.004-0.068-0.054-0.187,0.069-0.199c0.244-0.024,0.494-0.116,0.724,0.09c0.121,0.11,0.243,0.255,0.426,0.267
		c0.254,0.015,0.51,0.002,0.764,0.004c0.125,0.001,0.16-0.05,0.117-0.166c-0.068-0.184-0.143-0.364-0.188-0.552
		c-0.049-0.198-0.146-0.265-0.356-0.252c-0.453,0.026-0.633-0.146-0.67-0.593c-0.008-0.07,0.021-0.169-0.049-0.204
		c-0.074-0.035-0.142,0.056-0.215,0.083c-0.095,0.034-0.095,0.127-0.115,0.199c-0.047,0.149-0.08,0.303-0.123,0.464
		c-0.281-0.234-0.521-0.461-0.472-0.845c0.007-0.038,0-0.098-0.024-0.115c-0.312-0.229-0.525-0.66-1.033-0.477
		c0.037,0.278,0.172,0.493,0.436,0.633c0.182,0.096,0.408,0.131,0.293,0.474c-0.063,0.196-0.137,0.299-0.305,0.317
		c-0.16,0.017-0.322-0.029-0.361-0.248h0.107c0.117-0.002,0.277,0.064,0.316-0.095c0.035-0.138-0.14-0.151-0.222-0.215
		c-0.266-0.207-0.614-0.33-0.715-0.716c-0.037,0.029-0.065,0.045-0.088,0.067c-0.149,0.154-0.302,0.3-0.547,0.19
		c-0.07-0.031-0.136,0-0.164,0.065c-0.099,0.22-0.332,0.361-0.397,0.575c-0.16,0.506-0.554,0.431-0.929,0.433
		c-0.041,0-0.084,0.008-0.121-0.001c-0.209-0.05-0.418-0.094-0.418-0.377c0-0.104-0.03-0.208-0.041-0.313
		c-0.028-0.274,0.093-0.412,0.354-0.495c0.271-0.085,0.521-0.017,0.771,0.037c0.117,0.024,0.129-0.033,0.133-0.108
		c0.008-0.074,0.121-0.185-0.041-0.21c-0.266-0.043-0.109-0.218-0.109-0.333c0-0.133,0.033-0.255,0.222-0.248
		c0.293,0.01,0.515-0.112,0.644-0.385c0.16-0.335,0.459-0.352,0.771-0.308c0.381,0.053,0.381,0.059,0.332-0.304
		C20.324,5.364,20.316,5.302,20.305,5.223 M21.049,4.771c0.02,0.349-0.055,0.612-0.432,0.701c-0.051,0.012-0.109,0.041-0.092,0.119
		c0.016,0.077,0.061,0.104,0.137,0.104c0.205-0.002,0.41,0.01,0.613-0.001c0.149-0.008,0.315-0.306,0.231-0.406
		C21.359,5.111,21.203,4.943,21.049,4.771 M8.076,6.858c0.064,0,0.131,0.007,0.194-0.002c0.074-0.011,0.192,0.058,0.2-0.097
		c0.005-0.128-0.069-0.253-0.163-0.271C8.068,6.441,7.824,6.479,7.609,6.614c-0.05,0.03-0.076,0.09-0.064,0.145
		c0.012,0.056,0.077,0.046,0.121,0.063C7.799,6.872,7.938,6.855,8.076,6.858 M8.141,6.971C7.753,6.921,7.497,7.123,7.482,7.46
		C7.475,7.568,7.54,7.6,7.613,7.637c0.086,0.043,0.129-0.023,0.15-0.081C7.847,7.342,8.026,7.188,8.141,6.971 M6.086,4.08
		c0.065,0,0.131,0.006,0.195-0.002c0.146-0.018,0.21-0.116,0.206-0.249c-0.004-0.15-0.13-0.067-0.202-0.089
		C6.124,3.692,6.008,3.848,5.849,3.833c-0.07-0.006-0.045,0.088-0.05,0.14C5.793,4.036,5.813,4.082,5.891,4.08
		C5.957,4.078,6.022,4.079,6.086,4.08 M7.425,5.77c0.007-0.158-0.132-0.129-0.207-0.131c-0.13-0.002-0.312,0.023-0.313,0.172
		C6.904,5.912,6.954,6.095,7.11,6.121C7.266,6.148,7.418,5.962,7.425,5.77 M6.15,4.684V4.672c0.048,0,0.097-0.003,0.145,0.001
		C6.435,4.684,6.5,4.636,6.492,4.482C6.479,4.303,6.357,4.38,6.281,4.391c-0.119,0.013-0.234,0.06-0.353,0.084
		C5.862,4.49,5.823,4.516,5.836,4.586c0.012,0.062,0.055,0.095,0.118,0.098C6.02,4.687,6.084,4.684,6.15,4.684 M8.188,7.838
		c0.102,0,0.203,0.018,0.296-0.004c0.178-0.04,0.24-0.168,0.225-0.345c-0.014-0.155-0.141-0.09-0.176-0.063
		C8.391,7.534,8.168,7.579,8.188,7.838 M9.131,7.597C9.25,7.591,9.369,7.634,9.356,7.453C9.336,7.189,9.099,7.29,8.971,7.216
		c-0.076-0.045-0.087,0.043-0.08,0.098C8.913,7.466,8.92,7.634,9.131,7.597 M8.416,7.161c0.017,0.033-0.072,0.164,0.082,0.142
		C8.639,7.28,8.796,7.256,8.795,7.057c0-0.17-0.133-0.091-0.213-0.107C8.423,6.916,8.38,6.996,8.416,7.161 M22.885,7.372
		c-0.098,0.204-0.068,0.394-0.045,0.562c0.018,0.129,0.164,0.044,0.246,0.041c0.098-0.002,0.041-0.079,0.021-0.123
		C23.041,7.701,22.969,7.553,22.885,7.372 M2.371,7.244c-0.18,0.135-0.28,0.237-0.183,0.45C2.25,7.542,2.299,7.42,2.371,7.244"/>
</g>
<g id="Layer_11" display="none">
	<path display="inline" fill="#797979" d="M11.563,0h1.968c0.01,0.039,0.039,0.044,0.072,0.047c1.813,0.159,3.522,0.622,5.098,1.558
		c1.381,0.82,2.629,1.773,3.621,3.047c0.723,0.929,1.371,1.892,1.826,2.979c0.436,1.044,0.768,2.113,0.914,3.237
		c0.039,0.306,0.043,0.619,0.139,0.917v1.947c-0.098,0.113-0.078,0.256-0.092,0.385c-0.219,2.035-0.937,3.892-2.045,5.605
		c-0.742,1.15-1.689,2.135-2.769,2.969c-2.627,2.033-5.639,2.879-8.952,2.563c-2.536-0.243-4.804-1.163-6.759-2.818
		c-1.463-1.237-2.615-2.693-3.414-4.424c-0.997-2.156-1.349-4.414-1.091-6.775c0.147-1.342,0.526-2.616,1.06-3.849
		C1.616,6.295,2.3,5.325,3.054,4.407c1.083-1.32,2.454-2.299,3.953-3.099C8.183,0.682,9.46,0.325,10.783,0.13
		C11.042,0.092,11.315,0.113,11.563,0 M2.613,6.925c0.108-0.119,0.269-0.214,0.212-0.481C2.72,6.626,2.645,6.757,2.571,6.887
		C2.546,6.91,2.525,6.944,2.554,6.966C2.594,6.995,2.604,6.955,2.613,6.925 M20.305,5.223c-0.102,0.036-0.203,0.056-0.283,0.104
		c-0.16,0.098-0.231,0.035-0.272-0.119c-0.039-0.14-0.095-0.262-0.276-0.243c-0.08,0.008-0.084-0.058-0.101-0.111
		c-0.058-0.179,0.063-0.412,0.271-0.504c0.121-0.052,0.248-0.088,0.364-0.143c0.224-0.103,0.242-0.255,0.063-0.405
		c-0.432-0.363-0.887-0.697-1.367-0.989c-1.24-0.751-2.564-1.319-3.994-1.585c-1.85-0.344-3.69-0.283-5.488,0.346
		c-0.642,0.223-1.279,0.452-1.884,0.76C6.826,2.596,6.33,2.886,5.847,3.245c0.05,0.009,0.072,0.021,0.093,0.017
		c0.404-0.085,0.731,0.191,1.11,0.23c0.04,0.004,0.085,0.014,0.089,0.066c0.013,0.173,0.143,0.141,0.252,0.145
		c0.107,0.003,0.215,0.015,0.32,0.006C7.78,3.703,7.901,3.782,7.91,3.657c0.007-0.102-0.06-0.196-0.202-0.188
		c-0.167,0.01-0.336,0.003-0.584,0.003c0.152-0.106,0.209-0.182,0.15-0.29C7.22,3.085,7.128,3.132,7.053,3.127
		C6.938,3.119,6.821,3.125,6.64,3.125c0.235-0.174,0.407-0.309,0.585-0.433C7.466,2.528,7.964,2.619,8.133,2.85
		c0.202,0.276,0.568,0.314,0.808,0.067c0.129-0.132,0.23-0.154,0.355-0.018C9.09,3.166,8.862,3.385,8.479,3.312
		C8.419,3.3,8.332,3.299,8.365,3.403c0.03,0.101-0.033,0.299,0.094,0.285C8.699,3.663,9.004,3.861,9.18,3.53
		c0.015-0.027,0.087-0.027,0.137-0.033c0.09-0.011,0.179-0.02,0.27-0.024c0.125-0.007,0.096-0.108,0.117-0.18
		c0.018-0.063,0.01-0.104-0.067-0.126C9.574,3.149,9.444,3.208,9.469,3.066c0.019-0.102,0.058-0.205,0.19-0.225
		c0.271-0.039,0.539-0.01,0.86,0.018c-0.145,0.129-0.237,0.219-0.339,0.3c-0.124,0.099-0.065,0.224-0.017,0.308
		c0.085,0.148,0.267,0.108,0.4,0.102c0.094-0.005,0.02-0.138,0.03-0.21c0.016-0.106-0.079-0.243,0.041-0.317
		c0.379-0.24,0.802-0.336,1.236-0.22c0.289,0.078,0.557,0.23,0.833,0.353c0.061,0.028,0.156,0.04,0.135,0.143
		c-0.053,0.26,0.057,0.4,0.328,0.41c-0.133,0.32-0.133,0.332-0.416,0.316c-0.18-0.01-0.277,0.046-0.309,0.218
		c-0.025,0.124-0.09,0.165-0.227,0.127c-0.294-0.082-0.595-0.144-0.952-0.227c0.315-0.169,0.584-0.313,0.858-0.46
		c-0.287-0.278-0.288-0.287-0.653-0.24c-0.179,0.022-0.385-0.021-0.522,0.147c-0.118,0.146-0.254,0.247-0.457,0.235
		c-0.148-0.009-0.1,0.084-0.072,0.159c0.017,0.053,0.116,0.04,0.102,0.118c-0.087,0.06-0.254-0.01-0.276,0.105
		C10.208,4.398,10.089,4.35,10,4.352C9.891,4.354,9.92,4.24,9.914,4.181C9.898,4.048,9.854,4.043,9.725,4.07
		C9.21,4.177,8.85,4.552,8.413,4.788c-0.04,0.021-0.047,0.057-0.046,0.103C8.374,5.151,8.59,5.4,8.856,5.446
		c0.152,0.026,0.352,0,0.446,0.087c0.102,0.092,0.02,0.293,0.035,0.445c0.006,0.056-0.043,0.146,0.055,0.157
		c0.087,0.01,0.187,0.014,0.237-0.086C9.68,5.947,9.738,5.848,9.777,5.742c0.038-0.102,0.107-0.15,0.207-0.184
		c0.477-0.16,0.476-0.161,0.476-0.645V4.865c0.001-0.372,0.241-0.56,0.608-0.472c0.088,0.021,0.174,0.052,0.262,0.063
		c0.229,0.029,0.323,0.143,0.27,0.376c-0.017,0.077-0.09,0.187,0.013,0.24c0.085,0.044,0.188,0.006,0.283-0.037
		c0.159-0.073,0.306-0.178,0.496-0.216C12.394,4.889,12.406,4.945,12.4,5c-0.029,0.304,0.02,0.563,0.359,0.673
		c0.084,0.027,0.088,0.096,0.096,0.174c0.029,0.225-0.057,0.351-0.285,0.382c-0.057,0.008-0.121,0.019-0.131,0.088
		c-0.01,0.078,0.049,0.11,0.113,0.138c0.105,0.043,0.207,0.094,0.314,0.139c0.141,0.06,0.092,0.183,0.072,0.272
		c-0.02,0.098-0.123,0.054-0.186,0.037c-0.135-0.033-0.266-0.082-0.398-0.124c-0.257-0.08-0.277-0.148-0.096-0.349
		c0.07-0.077,0.09-0.167,0.01-0.229c-0.057-0.047-0.127-0.046-0.191,0.056c-0.103,0.164-0.491,0.159-0.596,0.005
		c-0.094-0.136-0.227-0.117-0.353-0.105c-0.094,0.009-0.156,0.066-0.161,0.179c-0.006,0.108,0.057,0.13,0.137,0.164
		c0.072,0.03,0.162-0.001,0.231,0.076c-0.085,0.091-0.12,0.261-0.302,0.104c-0.08-0.07-0.171-0.028-0.257,0.046
		c-0.286,0.247-0.505,0.555-0.861,0.742c-0.362,0.19-0.613,0.546-0.899,0.844c-0.024,0.027-0.058,0.07-0.054,0.104
		c0.026,0.265-0.171,0.36-0.352,0.472C8.492,8.96,8.374,9.034,8.26,9.116c-0.267,0.189-0.477,0.409-0.389,0.78
		c0.021,0.087,0.003,0.182,0.003,0.293c-0.253-0.12-0.551-0.149-0.47-0.523c0.027-0.127-0.097-0.104-0.172-0.104
		C6.878,9.56,6.525,9.542,6.173,9.569C5.849,9.593,5.541,9.745,5.33,9.966c-0.238,0.248-0.363,0.598-0.4,0.947
		c-0.019,0.179,0.059,0.41,0.225,0.473c0.224,0.085,0.483,0.138,0.72-0.052c0.202-0.161,0.432-0.289,0.649-0.433
		c0.228,0.315-0.098,0.514-0.144,0.775c0.116,0.021,0.228,0.054,0.34,0.058c0.229,0.01,0.358,0.086,0.328,0.345
		c-0.016,0.135,0.038,0.276,0.025,0.411c-0.027,0.264,0.085,0.331,0.341,0.395c0.436,0.109,0.758,0.057,0.987-0.346
		c0.109-0.191,0.262-0.267,0.487-0.178c0.182,0.072,0.404,0.017,0.539,0.23c0.164,0.261,0.646,0.265,0.835,0.022
		c0.037-0.047,0.06-0.035,0.099-0.017c0.145,0.07,0.306,0.117,0.379,0.285c0.17,0.398,0.448,0.612,0.909,0.514
		c0.083-0.019,0.159,0,0.199,0.095c0.113,0.265,0.277,0.516,0.245,0.821c-0.015,0.142,0.064,0.187,0.18,0.241
		c0.463,0.224,0.952,0.276,1.458,0.242c0.149-0.01,0.235,0.044,0.311,0.174c0.08,0.142,0.135,0.308,0.33,0.364
		c0.32,0.093,0.369,0.25,0.184,0.532c-0.049,0.073-0.104,0.146-0.166,0.21c-0.209,0.22-0.342,0.46-0.332,0.777
		c0.006,0.217-0.07,0.437-0.063,0.652c0.01,0.287-0.132,0.452-0.349,0.614c-0.201,0.151-0.408,0.077-0.61,0.083
		c-0.141,0.003-0.209,0.048-0.293,0.158c-0.17,0.223-0.064,0.433-0.02,0.646c0.033,0.156,0.059,0.283-0.051,0.449
		c-0.256,0.395-0.617,0.717-0.805,1.154c-0.021,0.05-0.061,0.074-0.107,0.095c-0.298,0.129-0.567,0.328-0.912,0.336
		c-0.084,0.002-0.162,0.021-0.167,0.135c-0.005,0.116,0.087,0.104,0.149,0.119c0.219,0.052,0.171,0.17,0.08,0.297
		c-0.033,0.046-0.077,0.086-0.123,0.118c-0.124,0.085-0.085,0.157-0.005,0.252c0.069,0.082,0.153,0.087,0.243,0.079
		c0.139-0.013,0.173,0.051,0.147,0.17c-0.017,0.078-0.029,0.159-0.055,0.233c-0.083,0.236-0.085,0.439,0.171,0.58
		c0.077,0.041,0.151,0.103,0.207,0.17c0.081,0.1,0.049,0.24-0.055,0.252c-0.224,0.025-0.496,0.098-0.673-0.041
		c-0.69-0.541-1.287-1.151-1.136-2.144c0.02-0.128,0.063-0.274-0.063-0.388c-0.303-0.27-0.352-0.594-0.224-0.961
		c0.021-0.061,0.028-0.126,0.038-0.189c0.019-0.119,0.06-0.242-0.133-0.271c-0.111-0.018-0.08-0.126-0.08-0.202
		c-0.002-0.397-0.037-0.8,0.009-1.192C9.23,17.6,9.07,17.305,8.663,17.107c-0.312-0.151-0.685-0.25-0.681-0.705
		c0-0.03-0.05-0.063-0.073-0.094c-0.149-0.185-0.284-0.382-0.448-0.55c-0.218-0.225-0.349-0.452-0.224-0.774
		c0.04-0.102,0.037-0.227,0.025-0.338c-0.02-0.221,0.06-0.371,0.261-0.465c0.283-0.133,0.392-0.322,0.315-0.654
		c-0.081-0.356-0.047-0.379-0.42-0.379c-0.329,0.002-0.607-0.056-0.796-0.359c-0.242-0.393-0.613-0.587-1.073-0.622
		c-0.096-0.007-0.157-0.038-0.127-0.152c0.016-0.057,0.062-0.141-0.034-0.165c-0.099-0.025-0.281-0.057-0.298-0.023
		c-0.109,0.222-0.255,0.063-0.375,0.049c-0.436-0.052-0.815-0.19-1.004-0.642c-0.045-0.107-0.082-0.184-0.003-0.279
		c0.084-0.104,0.054-0.187-0.008-0.302c-0.242-0.448-0.669-0.814-0.64-1.385C3.065,9.248,3.057,9.222,3.047,9.2
		C3.008,9.119,2.932,9.164,2.875,9.157c-0.092-0.01-0.082,0.06-0.072,0.114c0.046,0.276,0.033,0.567,0.24,0.801
		c0.09,0.103,0.156,0.228,0.228,0.346c0.074,0.124,0.058,0.323-0.023,0.351c-0.118,0.04-0.314,0.056-0.406-0.116
		C2.617,10.236,2.336,9.835,2.436,9.32C2.447,9.273,2.434,9.222,2.44,9.174c0.014-0.111-0.019-0.191-0.136-0.22
		C1.988,8.88,1.903,8.672,1.955,8.38c0.008-0.044,0.001-0.09,0.001-0.136c-1.146,2.724-1.232,5.488-0.273,8.268
		c0.969,2.805,2.784,4.979,5.405,6.379c5.879,3.141,11.803,0.586,14.422-2.869c-0.328-0.012-0.318-0.013-0.332-0.344
		c-0.008-0.203,0.082-0.429-0.098-0.603c-0.305-0.296-0.391-0.657-0.338-1.063c0.025-0.205-0.031-0.371-0.201-0.512
		c-0.178-0.148-0.207-0.41-0.107-0.617c0.103-0.201,0.189-0.41,0.303-0.607c0.063-0.108,0.043-0.188-0.016-0.286
		c-0.154-0.259-0.273-0.539-0.455-0.776c-0.264-0.35-0.279-0.72-0.209-1.123c0.06-0.331,0.047-0.329-0.301-0.361
		c-0.221-0.021-0.443-0.013-0.58-0.265c-0.094-0.171-0.594-0.144-0.701,0.032c-0.084,0.143-0.188,0.141-0.322,0.148
		c-0.252,0.018-0.504-0.035-0.764,0.064c-0.145,0.057-0.387,0.104-0.512-0.104c-0.141-0.23-0.313-0.443-0.514-0.61
		c-0.451-0.375-0.564-0.841-0.482-1.386c0.012-0.079-0.004-0.154,0.104-0.191c0.152-0.054,0.107-0.207,0.123-0.316
		c0.021-0.141-0.112-0.063-0.178-0.086c-0.113-0.043-0.18-0.33-0.09-0.436c0.229-0.27,0.535-0.447,0.826-0.632
		c0.285-0.18,0.443-0.381,0.377-0.726c-0.012-0.063-0.041-0.168,0.031-0.202c0.256-0.122,0.459-0.367,0.793-0.323
		c0.201,0.025,0.434,0.08,0.604-0.025c0.379-0.236,0.799-0.21,1.211-0.243c0.447-0.036,0.459-0.025,0.447,0.417
		c-0.002,0.164,0.059,0.217,0.205,0.258c0.344,0.096,0.711,0.112,1.021,0.324c0.104,0.072,0.217,0.034,0.201-0.142
		c-0.004-0.068-0.054-0.187,0.069-0.199c0.244-0.024,0.494-0.116,0.724,0.09c0.121,0.11,0.243,0.255,0.426,0.267
		c0.254,0.015,0.51,0.002,0.764,0.004c0.125,0.001,0.16-0.05,0.117-0.166c-0.068-0.184-0.143-0.364-0.188-0.552
		c-0.049-0.198-0.146-0.265-0.356-0.252c-0.453,0.026-0.633-0.146-0.67-0.593c-0.008-0.07,0.021-0.169-0.049-0.204
		c-0.074-0.035-0.142,0.056-0.215,0.083c-0.095,0.034-0.095,0.127-0.115,0.199c-0.047,0.149-0.08,0.303-0.123,0.464
		c-0.281-0.234-0.521-0.461-0.472-0.845c0.007-0.038,0-0.098-0.024-0.115c-0.312-0.229-0.525-0.66-1.033-0.477
		c0.037,0.278,0.172,0.493,0.436,0.633c0.182,0.096,0.408,0.131,0.293,0.474c-0.063,0.196-0.137,0.299-0.305,0.317
		c-0.16,0.017-0.322-0.029-0.361-0.248h0.107c0.117-0.002,0.277,0.064,0.316-0.095c0.035-0.138-0.14-0.151-0.222-0.215
		c-0.266-0.207-0.614-0.33-0.715-0.716c-0.037,0.029-0.065,0.045-0.088,0.067c-0.149,0.154-0.302,0.3-0.547,0.19
		c-0.07-0.031-0.136,0-0.164,0.065c-0.099,0.22-0.332,0.361-0.397,0.575c-0.16,0.506-0.554,0.431-0.929,0.433
		c-0.041,0-0.084,0.008-0.121-0.001c-0.209-0.05-0.418-0.094-0.418-0.377c0-0.104-0.03-0.208-0.041-0.313
		c-0.028-0.274,0.093-0.412,0.354-0.495c0.271-0.085,0.521-0.017,0.771,0.037c0.117,0.024,0.129-0.033,0.133-0.108
		c0.008-0.074,0.121-0.185-0.041-0.21c-0.266-0.043-0.109-0.218-0.109-0.333c0-0.133,0.033-0.255,0.222-0.248
		c0.293,0.01,0.515-0.112,0.644-0.385c0.16-0.335,0.459-0.352,0.771-0.308c0.381,0.053,0.381,0.059,0.332-0.304
		C20.324,5.364,20.316,5.302,20.305,5.223 M21.049,4.771c0.02,0.349-0.055,0.612-0.432,0.701c-0.051,0.012-0.109,0.041-0.092,0.119
		c0.016,0.077,0.061,0.104,0.137,0.104c0.205-0.002,0.41,0.01,0.613-0.001c0.149-0.008,0.315-0.306,0.231-0.406
		C21.359,5.111,21.203,4.943,21.049,4.771 M8.076,6.858c0.064,0,0.131,0.007,0.194-0.002c0.074-0.011,0.192,0.058,0.2-0.097
		c0.005-0.128-0.069-0.253-0.163-0.271C8.068,6.441,7.824,6.479,7.609,6.614c-0.05,0.03-0.076,0.09-0.064,0.145
		c0.012,0.056,0.077,0.046,0.121,0.063C7.799,6.872,7.938,6.855,8.076,6.858 M8.141,6.971C7.753,6.921,7.497,7.123,7.482,7.46
		C7.475,7.568,7.54,7.6,7.613,7.637c0.086,0.043,0.129-0.023,0.15-0.081C7.847,7.342,8.026,7.188,8.141,6.971 M6.086,4.08
		c0.065,0,0.131,0.006,0.195-0.002c0.146-0.018,0.21-0.116,0.206-0.249c-0.004-0.15-0.13-0.067-0.202-0.089
		C6.124,3.692,6.008,3.848,5.849,3.833c-0.07-0.006-0.045,0.088-0.05,0.14C5.793,4.036,5.813,4.082,5.891,4.08
		C5.957,4.078,6.022,4.079,6.086,4.08 M7.425,5.77c0.007-0.158-0.132-0.129-0.207-0.131c-0.13-0.002-0.312,0.023-0.313,0.172
		C6.904,5.912,6.954,6.095,7.11,6.121C7.266,6.148,7.418,5.962,7.425,5.77 M6.15,4.684V4.672c0.048,0,0.097-0.003,0.145,0.001
		C6.435,4.684,6.5,4.636,6.492,4.482C6.479,4.303,6.357,4.38,6.281,4.391c-0.119,0.013-0.234,0.06-0.353,0.084
		C5.862,4.49,5.823,4.516,5.836,4.586c0.012,0.062,0.055,0.095,0.118,0.098C6.02,4.687,6.084,4.684,6.15,4.684 M8.188,7.838
		c0.102,0,0.203,0.018,0.296-0.004c0.178-0.04,0.24-0.168,0.225-0.345c-0.014-0.155-0.141-0.09-0.176-0.063
		C8.391,7.534,8.168,7.579,8.188,7.838 M9.131,7.597C9.25,7.591,9.369,7.634,9.356,7.453C9.336,7.189,9.099,7.29,8.971,7.216
		c-0.076-0.045-0.087,0.043-0.08,0.098C8.913,7.466,8.92,7.634,9.131,7.597 M8.416,7.161c0.017,0.033-0.072,0.164,0.082,0.142
		C8.639,7.28,8.796,7.256,8.795,7.057c0-0.17-0.133-0.091-0.213-0.107C8.423,6.916,8.38,6.996,8.416,7.161 M22.885,7.372
		c-0.098,0.204-0.068,0.394-0.045,0.562c0.018,0.129,0.164,0.044,0.246,0.041c0.098-0.002,0.041-0.079,0.021-0.123
		C23.041,7.701,22.969,7.553,22.885,7.372 M2.371,7.244c-0.18,0.135-0.28,0.237-0.183,0.45C2.25,7.542,2.299,7.42,2.371,7.244"/>
	<path display="inline" fill="#797979" d="M17.512,6.743c-0.166,0.239-0.654,0.396-0.898,0.303
		c-0.065-0.024-0.061-0.071-0.045-0.108c0.037-0.099-0.043-0.242,0.119-0.296c0.058-0.019,0.156,0.025,0.164-0.085
		c0.008-0.103-0.053-0.158-0.133-0.201c-0.033-0.019-0.068-0.039-0.102-0.06c-0.107-0.071-0.248-0.123-0.199-0.297
		c0.043-0.151,0.17-0.18,0.303-0.215c0.182-0.048,0.187,0.071,0.209,0.185C17.002,6.31,17.146,6.598,17.512,6.743"/>
	<path display="inline" fill="#797979" d="M16.021,6.911c-0.111-0.018-0.197,0.022-0.209-0.089c-0.021-0.2,0.104-0.344,0.219-0.468
		c0.088-0.096,0.238-0.117,0.387-0.073c0.166,0.05,0.174,0.186,0.107,0.269C16.387,6.723,16.189,6.836,16.021,6.911"/>
</g>
<g id="Layer_12" display="none">
	<path display="inline" fill="#FFFFFF" d="M15.996,12.282h-2.182v7.782h-3.233v-7.782h-1.54V9.536h1.54V7.757
		c0-1.275,0.604-3.266,3.265-3.266l2.393,0.012v2.668H14.5c-0.283,0-0.686,0.14-0.686,0.747v1.618h2.467L15.996,12.282z"/>
	<path display="inline" fill="#4B6EA8" d="M25,12.506C25.02,19.387,19.438,24.98,12.535,25C5.63,25.02,0.019,19.456,0,12.575
		C-0.02,5.692,5.561,0.099,12.467,0.08C19.371,0.061,24.982,5.624,25,12.506"/>
	<path display="inline" fill="none" stroke="#606060" stroke-width="1.125" stroke-miterlimit="10" d="M15.996,12.612h-2.182v7.783
		h-3.233v-7.783h-1.54V9.866h1.54V8.087c0-1.275,0.604-3.266,3.265-3.266l2.393,0.012v2.668H14.5c-0.283,0-0.686,0.14-0.686,0.747
		v1.618h2.467L15.996,12.612z"/>
	<path display="inline" fill="#FFFFFF" d="M16.037,12.696h-2.182v7.783h-3.233v-7.783h-1.54V9.95h1.54V8.171
		c0-1.275,0.604-3.266,3.265-3.266l2.393,0.012v2.668H14.54c-0.283,0-0.685,0.14-0.685,0.747V9.95h2.465L16.037,12.696z"/>
</g>
<g id="Layer_13" display="none">
	<path display="inline" fill="#EC702E" d="M25.002,12.499C25.002,19.402,19.404,25,12.501,25C5.596,25,0,19.402,0,12.499
		C0,5.595,5.596-0.002,12.501-0.002C19.404-0.002,25.002,5.595,25.002,12.499"/>
	<path display="inline" fill="none" stroke="#FFFFFF" stroke-width="1.125" stroke-miterlimit="10" d="M12.481,13.016
		c-1.325-1.324-3.653-1.133-5.213,0.426C5.713,15,5.521,17.332,6.842,18.652c1.322,1.322,3.657,1.134,5.213-0.424
		C13.616,16.67,13.803,14.338,12.481,13.016z"/>
	<path display="inline" fill="none" stroke="#FFFFFF" stroke-width="1.125" stroke-miterlimit="10" d="M19.126,6.367
		c-1.319-1.319-3.614-1.174-5.114,0.333c-1.507,1.503-1.654,3.796-0.332,5.115c1.322,1.324,3.613,1.176,5.118-0.327
		C20.303,9.981,20.447,7.69,19.126,6.367z"/>
	
		<line display="inline" fill="none" stroke="#FFFFFF" stroke-width="1.125" stroke-linecap="round" stroke-miterlimit="10" x1="10.398" y1="15.1" x2="16.074" y2="9.421"/>
</g>
<g id="Layer_14" display="none">
	<path display="inline" fill="#007879" d="M15.792,4.837c0.117,0.027,0.235,0.049,0.353,0.077c0.914,0.217,1.619,1.001,1.722,1.931
		c0.135,1.253-0.226,2.345-1.138,3.224c-0.502,0.482-1.025,0.937-1.541,1.401c-0.604,0.542-1.203,1.084-1.806,1.625
		c-0.003,0.004-0.011,0.008-0.005,0.004c-0.561-0.5-1.12-0.999-1.68-1.499c-0.501-0.448-1.011-0.892-1.511-1.348
		C9.864,9.954,9.582,9.62,9.347,9.245C8.999,8.679,8.872,8.055,8.843,7.4c-0.021-0.447,0.04-0.877,0.242-1.278
		c0.352-0.696,0.918-1.104,1.684-1.247c0.061-0.012,0.125-0.026,0.185-0.039h0.462c0.02,0.007,0.041,0.015,0.063,0.019
		c0.653,0.093,1.179,0.408,1.604,0.91c0.101,0.122,0.19,0.254,0.29,0.386c0.025-0.042,0.053-0.08,0.079-0.12
		c0.343-0.5,0.782-0.875,1.358-1.07c0.172-0.058,0.348-0.086,0.521-0.125L15.792,4.837L15.792,4.837z M13.461,11.286
		c0.212-0.02,0.426-0.025,0.635-0.06c0.283-0.045,0.539-0.165,0.754-0.352c0.35-0.303,0.578-0.684,0.709-1.122
		C15.7,9.274,15.705,8.787,15.596,8.3c-0.07-0.328-0.203-0.64-0.422-0.901c-0.381-0.465-0.906-0.655-1.48-0.714
		c-0.318-0.033-0.645-0.006-0.967,0.047c-0.516,0.08-0.911,0.333-1.202,0.762c-0.176,0.27-0.292,0.564-0.362,0.88
		c-0.094,0.389-0.101,0.775-0.029,1.164c0.055,0.305,0.152,0.594,0.318,0.858c0.204,0.331,0.471,0.578,0.845,0.703
		C12.676,11.222,13.059,11.298,13.461,11.286"/>
	<path display="inline" fill="#007879" d="M3.35,14.398c0.5-0.119,0.912-0.356,1.171-0.676c0.671,1.413,1.28,2.852,1.907,4.291
		c-0.237,0.03-0.396,0.184-0.583,0.293c-0.069,0.045-0.122,0.045-0.19-0.016c-0.957-0.773-1.604-1.76-2.015-2.908
		c-0.104-0.3-0.179-0.605-0.268-0.906C3.366,14.463,3.36,14.45,3.35,14.438V14.398z"/>
	<path display="inline" fill="#007879" d="M6.618,17.675c-0.602-1.413-1.325-2.763-1.834-4.219c0.057-0.017,0.11-0.03,0.166-0.043
		c0.441-0.132,0.841-0.349,1.244-0.563c0.522-0.279,1.041-0.563,1.602-0.761c0.454-0.16,0.917-0.245,1.4-0.206
		c0.39,0.034,0.75,0.163,1.092,0.355c0.431,0.249,0.809,0.56,1.181,0.881c0.646,0.563,1.375,0.951,2.21,1.154
		c0.461,0.112,0.93,0.111,1.399,0.106c0.392-0.004,0.78-0.009,1.165,0.075c0.078,0.021,0.156,0.052,0.234,0.082
		c0.385,0.166,0.385,0.729,0.063,0.932c-0.217,0.135-0.455,0.186-0.702,0.215c-0.696,0.078-1.397,0.012-2.098,0.012
		c-0.511,0.003-1.021-0.018-1.532-0.057c-0.541-0.041-1.076-0.131-1.571-0.371c-0.007-0.004-0.013,0-0.027,0
		c0.202,0.262,0.439,0.475,0.709,0.655c0.405,0.272,0.855,0.427,1.346,0.476c0.607,0.06,1.218,0.086,1.829,0.072
		c0.646-0.021,1.289-0.064,1.914-0.254c0.37-0.107,0.676-0.316,0.864-0.662c0.385-0.699,0.023-1.509-0.771-1.688
		c-0.301-0.072-0.614-0.095-0.925-0.12c-0.396-0.033-0.792-0.047-1.189-0.068c0.006-0.023,0.006-0.031,0.008-0.033
		c0.461-0.291,0.916-0.586,1.379-0.869c0.274-0.168,0.572-0.293,0.897-0.339c0.399-0.061,0.744,0.054,1.034,0.335
		c0.021,0.019,0.04,0.038,0.064,0.058c0.287-0.236,0.615-0.365,0.977-0.419c0.199-0.03,0.408-0.033,0.605,0.032
		c0.285,0.091,0.445,0.314,0.463,0.649c0.002,0.016,0.002,0.037,0.004,0.068c0.041-0.025,0.07-0.044,0.103-0.063
		c0.517-0.3,1.056-0.408,1.634-0.214c0.235,0.077,0.398,0.24,0.479,0.478c0.014,0.054,0.017,0.121,0,0.176
		c-0.114,0.388-0.366,0.679-0.687,0.906c-0.334,0.238-0.688,0.447-1.027,0.676c-1.088,0.732-2.176,1.474-3.266,2.203
		c-0.674,0.451-1.354,0.895-2.037,1.326c-0.278,0.179-0.572,0.322-0.895,0.394c-0.402,0.09-0.803,0.035-1.189-0.086
		c-0.535-0.169-1.027-0.44-1.516-0.706c-0.69-0.371-1.38-0.749-2.073-1.12c-0.19-0.101-0.392-0.182-0.592-0.262
		c-0.34-0.134-0.668-0.089-0.976,0.099c-0.187,0.116-0.359,0.254-0.537,0.383C7.054,17.486,6.858,17.616,6.618,17.675"/>
	<path display="inline" fill="#007879" d="M11.241,9.02c0.013-0.416,0.108-0.804,0.293-1.174c0.168-0.335,0.409-0.608,0.749-0.779
		c0.291-0.146,0.597-0.186,0.918-0.142c0.338,0.048,0.611,0.2,0.835,0.45c0.241,0.268,0.387,0.588,0.47,0.936
		c0.063,0.273,0.096,0.549,0.075,0.828c-0.04,0.518-0.169,1.001-0.515,1.406c-0.287,0.343-0.656,0.504-1.104,0.517
		c-0.386,0.006-0.709-0.133-1.003-0.372c-0.359-0.289-0.551-0.675-0.64-1.119C11.283,9.391,11.268,9.204,11.241,9.02 M12.126,9.436
		c0.04,0.116,0.063,0.228,0.116,0.324c0.098,0.179,0.278,0.261,0.459,0.327c0.06,0.021,0.076,0.044,0.076,0.107
		c0,0.214-0.037,0.187,0.195,0.194c0.086,0.003,0.114-0.042,0.114-0.113v-0.172c0.113-0.036,0.214-0.063,0.307-0.101
		c0.055-0.021,0.104-0.054,0.142-0.095c0.052-0.058,0.098-0.125,0.136-0.191c0.139-0.234,0.161-0.478-0.009-0.704
		c-0.065-0.087-0.17-0.162-0.269-0.217c-0.178-0.096-0.371-0.167-0.552-0.259c-0.129-0.068-0.209-0.169-0.023-0.271
		c0.027-0.018,0.054-0.043,0.081-0.059c0.1-0.064,0.146-0.027,0.214,0.047c0.078,0.083,0.158,0.165,0.213,0.22
		c0.137-0.053,0.24-0.094,0.337-0.133c-0.103-0.375-0.175-0.445-0.529-0.548c-0.021-0.002-0.042-0.041-0.045-0.066
		c-0.007-0.054-0.002-0.114-0.002-0.174h-0.309c0,0.04,0,0.068,0,0.101c0.013,0.086-0.012,0.126-0.106,0.153
		c-0.26,0.075-0.44,0.252-0.481,0.518c-0.046,0.282,0.059,0.516,0.294,0.692c0.161,0.118,0.35,0.146,0.533,0.205
		c0.086,0.028,0.187,0.055,0.201,0.167c0.016,0.095,0.002,0.185-0.08,0.248c-0.086,0.066-0.32,0.079-0.439-0.053
		c-0.059-0.066-0.093-0.161-0.148-0.256C12.425,9.355,12.283,9.392,12.126,9.436"/>
	<path display="inline" fill="#007879" d="M15.381,8.357c-0.203,0.114-0.422,0-0.631,0.036c-0.027-0.091-0.055-0.177-0.08-0.258
		c0.207,0,0.405,0.002,0.6,0c0.072,0,0.086,0.038,0.084,0.096C15.354,8.27,15.367,8.306,15.381,8.357"/>
	<path display="inline" fill="#007879" d="M15.197,10.116c-0.057,0.087-0.102,0.15-0.149,0.211c-0.008,0.014-0.032,0.019-0.05,0.019
		c-0.191,0.001-0.389,0.001-0.58,0.001c-0.003-0.146,0.159-0.22,0.283-0.228C14.857,10.11,15.016,10.116,15.197,10.116"/>
	<path display="inline" fill="#007879" d="M15.186,7.814c-0.217,0-0.403-0.001-0.59,0c-0.055,0-0.084-0.009-0.095-0.066
		c-0.013-0.047-0.04-0.092-0.069-0.156c0.108-0.003,0.209-0.01,0.311-0.007c0.102,0.001,0.199,0.012,0.308,0.018
		C15.088,7.66,15.133,7.73,15.186,7.814"/>
	<path display="inline" fill="#007879" d="M14.715,7.21c-0.389,0.132-0.722,0.012-0.771-0.197
		C14.325,6.983,14.512,7.036,14.715,7.21"/>
</g>
<g id="Layer_6" display="none">
	<path display="inline" fill="#007879" d="M12.502,24.221c-6.475,0-11.718-5.246-11.718-11.718c0-6.475,5.243-11.72,11.718-11.72
		c6.473,0,11.719,5.245,11.719,11.72C24.221,18.975,18.975,24.221,12.502,24.221 M12.502,0C5.599,0,0,5.598,0,12.502
		C0,19.402,5.599,25,12.502,25C19.4,25,25,19.402,25,12.502C25,5.598,19.4,0,12.502,0"/>
	<line display="inline" fill="none" stroke="#797979" stroke-miterlimit="100" x1="9.38" y1="12.735" x2="16.061" y2="12.735"/>
	<line display="inline" fill="none" stroke="#797979" stroke-miterlimit="100" x1="9.38" y1="14.414" x2="16.061" y2="14.414"/>
	<line display="inline" fill="none" stroke="#797979" stroke-miterlimit="100" x1="9.38" y1="15.971" x2="16.061" y2="15.971"/>
	<line display="inline" fill="none" stroke="#797979" stroke-miterlimit="100" x1="9.38" y1="17.65" x2="16.061" y2="17.65"/>
	<line display="inline" fill="none" stroke="#797979" stroke-miterlimit="100" x1="9.38" y1="19.096" x2="16.061" y2="19.096"/>
	<line display="inline" fill="none" stroke="#797979" stroke-miterlimit="100" x1="12.72" y1="4.995" x2="12.72" y2="10.379"/>
	<line display="inline" fill="none" stroke="#797979" stroke-miterlimit="100" x1="11.306" y1="6.757" x2="14.175" y2="6.757"/>
	<path display="inline" fill="none" stroke="#797979" stroke-miterlimit="100" d="M15.361,22.078h-5.29c-1.1,0-2-0.9-2-2V5.745
		c0-1.101,0.9-2,2-2h5.29c1.1,0,2,0.899,2,2v14.333C17.361,21.178,16.461,22.078,15.361,22.078z"/>
</g>
</svg>
